<?xml version="1.0" encoding="utf-8"?>
<!-- Generator: Adobe Illustrator 21.0.2, SVG Export Plug-In . SVG Version: 6.00 Build 0)  -->
<svg version="1.1" id="Слой_1" xmlns="http://www.w3.org/2000/svg" xmlns:xlink="http://www.w3.org/1999/xlink" x="0px" y="0px"
	 viewBox="0 0 221.5 74.8" style="enable-background:new 0 0 221.5 74.8;" xml:space="preserve">
<style type="text/css">
	.st0{fill:#F58220;}
</style>
<g>
	<path class="st0" d="M39.7,64.4c-1.6-4-1.5-16.7,0.1-21.4s4.6-15-2.9-12.6c0,0-2-10.8-15.1-2.8C10.1,34.9,1,49.7,0.1,59.9
		s4.4,14.2,10.4,13.2S27.3,64.7,32,56.7c0,0-1.3,10.7,3.4,15.9s9.3,0,9.3-1.9S41.3,68.4,39.7,64.4z M9,64.9
		c-4.9-4.9,4.9-21.4,10.6-28s12.4-6.6,13.2-3C36.5,48.8,13.8,69.8,9,64.9z"/>
	<path class="st0" d="M62,29.4c0.8-5.5,7.5-6.6,6.8,4.5c-0.5,7.2-4.4,22.3-3.3,24.1s10.6-15,15.4-22.5s11-8.7,13.3-6.9
		s3.8,6.4,4,16.4s0.1,14.9,3.1,11.4s11.1-22.3,16.6-26.4s11.9-2,13.1,8.9s1.3,21.1,5.3,23.5c4,2.4,6.3,4.1,2.5,7.6
		s-14-0.6-14.1-21.5c0-4.9,0.1-12.4-3-11s-8.4,8.4-12.6,18.7s-7.8,13.5-12.1,13.1S92,53.7,92,49.2s0.1-13.4-2.9-11.6
		S76.6,51.3,73,60.1s-6,12.8-10.9,12.4s-4.4-10.1-3.8-17.3S61.1,35.9,62,29.4z"/>
	<path class="st0" d="M165.3,13.6c-2,0-3.9-6.2-2.9-10.1s6.3-4.2,8.8-2.4C175.6,4.3,171.6,13.6,165.3,13.6z"/>
	<path class="st0" d="M160.6,27.4c4.5,0.2,4.1,5.2,2.1,12.2s-3.6,13-3.6,20s3,15.3-3.4,14.9s-3.9-16-2.4-24.5
		c0.8-4.4,1.7-9.7,2.5-14.4C156.6,31.3,157.3,27.3,160.6,27.4z"/>
	<path class="st0" d="M220.2,68.8c-3.5-2-4.5-5.7-5-12.1s2.4-20.1,3.1-24.1s-4.1-2.4-4.1-2.4s-1.6-6.5-11.4-4.8s-19.8,18-22.4,22.9
		c-4.3,8.1-6.6,25.1,4,25.3c13,0.2,23.6-16.5,23.6-16.5c0,12,4,16.2,7.6,17.5S223.7,70.8,220.2,68.8z M184.8,62.7
		c-2.6-9.9,10-23.3,13.3-27.3s11.1-6.4,11.5-1.6C211.3,53.9,187.5,72.6,184.8,62.7z"/>
</g>
</svg>
