<?xml version="1.0" encoding="utf-8"?>
<!-- Generator: Adobe Illustrator 21.0.2, SVG Export Plug-In . SVG Version: 6.00 Build 0)  -->
<svg version="1.1" id="Слой_1" xmlns="http://www.w3.org/2000/svg" xmlns:xlink="http://www.w3.org/1999/xlink" x="0px" y="0px"
	 viewBox="0 0 214.1 66.4" style="enable-background:new 0 0 214.1 66.4;" xml:space="preserve">
<style type="text/css">
	.st0{fill:#6FBE44;}
	.st1{fill:#7DD84D;}
	.st2{fill:#7F827D;}
	.st3{fill:url(#SVGID_1_);}
	.st4{fill:none;stroke:#7F827D;stroke-width:0.5;stroke-miterlimit:10;}
	.st5{opacity:0.5;}
	.st6{opacity:0.2;fill:#FFFFFF;}
	.st7{fill:#41A043;}
	.st8{fill:#FFFFFF;}
</style>
<g>
	<g>
		<path class="st0" d="M81.9,21.7V6.9h6.6c1.7,0,3,0.4,3.8,1.3c0.6,0.6,0.9,1.4,0.9,2.3c0,1.4-0.7,2.5-2,3.2L90.5,14l0.8,0.3
			c2,0.7,2.8,1.7,2.8,3.4c0,2.5-2,3.9-5.4,3.9H81.9z M83.9,20h4.9c2.1,0,3.4-0.9,3.4-2.5c0-1-0.5-2.5-3.6-2.5h-4.7V20z M83.9,13.4
			H88c2.1,0,3.3-0.9,3.3-2.5c0-1.5-1.2-2.4-3.1-2.4h-4.3V13.4z"/>
		<path class="st1" d="M88.5,7.3c1.6,0,2.8,0.4,3.5,1.2c0.6,0.6,0.8,1.2,0.8,2.1c0,1.3-0.6,2.2-1.8,2.8l-1.6,0.8l1.7,0.6
			c1.8,0.6,2.6,1.5,2.6,3.1c0,3.2-3.5,3.5-5,3.5h-6.4V7.3H88.5 M83.5,13.8h0.8H88c2.3,0,3.7-1.1,3.7-2.9c0-1.3-0.9-2.7-3.5-2.7h-3.9
			h-0.8v0.8v4.1V13.8 M83.5,20.4h0.8h4.5c2.3,0,3.7-1.1,3.7-2.9c0-0.9-0.4-2.8-3.9-2.8h-4.3h-0.8v0.8v4.3V20.4 M88.5,6.5h-7v15.6
			h7.2c3.5,0,5.8-1.5,5.8-4.3v0c0-2.1-1.3-3.2-3.1-3.8c1.2-0.6,2.2-1.6,2.2-3.5v0c0-1-0.4-1.9-1-2.6C91.7,7,90.3,6.5,88.5,6.5
			L88.5,6.5z M84.2,13.1V8.9h3.9c1.8,0,2.7,0.8,2.7,2v0c0,1.4-1.2,2.1-2.9,2.1H84.2L84.2,13.1z M84.2,19.6v-4.3h4.3
			c2.2,0,3.2,0.8,3.2,2.1v0c0,1.4-1.1,2.1-3,2.1H84.2L84.2,19.6z"/>
		<path class="st2" d="M88.5,6.5c1.8,0,3.2,0.5,4.1,1.4c0.7,0.7,1,1.5,1,2.6v0c0,1.9-1.1,2.9-2.2,3.5c1.8,0.6,3.1,1.7,3.1,3.8v0
			c0,2.8-2.3,4.3-5.8,4.3h-7.2V6.5H88.5 M84.2,13.1H88c1.8,0,2.9-0.7,2.9-2.1v0c0-1.2-1-2-2.7-2h-3.9V13.1 M84.2,19.6h4.5
			c1.9,0,3-0.7,3-2.1v0c0-1.3-1-2.1-3.2-2.1h-4.3V19.6 M88.5,6h-7h-0.5v0.5v15.6v0.5h0.5h7.2c3.9,0,6.3-1.8,6.3-4.8
			c0-1.8-0.8-3.1-2.5-3.9c1.1-0.8,1.6-2,1.6-3.4c0-1.2-0.4-2.2-1.2-3C92,6.5,90.4,6,88.5,6L88.5,6z M84.7,9.4h3.4
			c0.8,0,2.2,0.2,2.2,1.5c0,1.4-1.3,1.7-2.4,1.7h-3.2V9.4L84.7,9.4z M84.7,15.9h3.8c1.8,0,2.7,0.5,2.7,1.6c0,1.4-1.4,1.7-2.5,1.7h-4
			V15.9L84.7,15.9z"/>
	</g>
	<g>
		<rect x="97.5" y="6.2" class="st0" width="1.9" height="15.5"/>
		<path class="st1" d="M99.1,6.6v14.7h-1.2V6.6H99.1 M99.8,5.8h-2.7v16.2h2.7V5.8L99.8,5.8z"/>
		<path class="st2" d="M99.8,5.8v16.2h-2.7V5.8H99.8 M100.3,5.3h-0.5h-2.7h-0.5v0.5v16.2v0.5h0.5h2.7h0.5v-0.5V5.8V5.3L100.3,5.3z"
			/>
	</g>
	<g>
		<path class="st0" d="M106.4,21.9c-1.9,0-3.8-1-3.8-3.2c0-3.1,3.1-3.4,4.5-3.4c1.4,0,2.3,0.2,3,0.5l0.5,0.2v-0.8
			c0-1.9-1.2-2.9-3.3-2.9c-1.2,0-2.2,0.2-3.1,0.6l-0.5-1.4c1.1-0.5,2.3-0.8,4-0.8c1.6,0,2.9,0.4,3.6,1.2c0.8,0.8,1.2,1.9,1.2,3.4
			v6.6h-1.9v-2.1l-0.7,0.8C109,21.4,107.8,21.9,106.4,21.9z M107.6,16.2c-1.9,0-3.1,0.9-3.1,2.3c0,1.3,1.1,2.2,2.7,2.2
			c2,0,3.5-1.2,3.5-2.9v-1.1l-0.2-0.1C109.8,16.5,108.8,16.2,107.6,16.2z"/>
		<path class="st1" d="M107.6,10.9c1.5,0,2.7,0.4,3.4,1.1c0.7,0.7,1,1.7,1,3.1v6.2h-1.1v-0.7v-2.1l0,0c0.1-0.2,0.1-0.5,0.1-0.7V17
			v-0.5l-0.5-0.2c-0.6-0.2-1.6-0.5-2.9-0.5c-2.6,0-3.5,1.4-3.5,2.7c0,1.5,1.2,2.5,3,2.5c0.7,0,1.3-0.1,1.8-0.3
			c-0.7,0.5-1.6,0.8-2.6,0.8c-1.7,0-3.4-0.9-3.4-2.9c0-2.6,2.6-3,4.1-3c1.3,0,2.2,0.2,2.9,0.5l1,0.3v-1v-0.3c0-2.1-1.4-3.3-3.7-3.3
			c-1.2,0-2.1,0.2-2.9,0.5l-0.2-0.7C105.1,11.2,106.2,10.9,107.6,10.9 M107.6,10.2c-1.9,0-3.1,0.4-4.4,1l0.7,2.1
			c1.1-0.4,2-0.7,3.4-0.7c1.9,0,2.9,0.9,2.9,2.6v0.3c-0.9-0.3-1.8-0.5-3.2-0.5c-2.9,0-4.8,1.2-4.8,3.8v0c0,2.4,2,3.6,4.2,3.6
			c1.8,0,3-0.8,3.8-1.7v1.5h2.6v-7c0-1.5-0.4-2.8-1.3-3.6C110.7,10.6,109.4,10.2,107.6,10.2L107.6,10.2z M107.1,20.3
			c-1.3,0-2.3-0.6-2.3-1.8v0c0-1.2,1-2,2.8-2c1.1,0,2,0.2,2.7,0.5v0.8C110.2,19.3,108.9,20.3,107.1,20.3L107.1,20.3z"/>
		<path class="st2" d="M107.6,10.2c1.8,0,3.1,0.5,3.9,1.3c0.9,0.8,1.3,2.1,1.3,3.6v7h-2.6v-1.5c-0.8,1-2,1.7-3.8,1.7
			c-2.2,0-4.2-1.3-4.2-3.6v0c0-2.5,2-3.8,4.8-3.8c1.3,0,2.2,0.2,3.2,0.5v-0.3c0-1.7-1-2.6-2.9-2.6c-1.3,0-2.3,0.3-3.4,0.7l-0.7-2.1
			C104.5,10.5,105.8,10.2,107.6,10.2 M107.1,20.3c1.8,0,3.1-1,3.1-2.5V17c-0.7-0.3-1.6-0.5-2.7-0.5c-1.7,0-2.8,0.7-2.8,2v0
			C104.8,19.7,105.8,20.3,107.1,20.3 M107.6,9.7c-2.1,0-3.5,0.5-4.6,1l-0.4,0.2l0.1,0.4l0.7,2.1l0.2,0.5l0.5-0.2
			c1-0.4,1.9-0.7,3.2-0.7c1.5,0,2.2,0.5,2.4,1.7c-0.7-0.2-1.5-0.3-2.6-0.3c-3.3,0-5.3,1.6-5.3,4.3c0,2.5,1.9,4.2,4.7,4.2
			c1.3,0,2.4-0.4,3.3-1v0.3v0.5h0.5h2.6h0.5v-0.5v-7c0-1.7-0.5-3.1-1.4-4C111,10.2,109.5,9.7,107.6,9.7L107.6,9.7z M107.1,19.8
			c-0.8,0-1.8-0.3-1.8-1.3c0-1.4,1.6-1.5,2.3-1.5c0.9,0,1.7,0.2,2.2,0.3v0.4C109.7,19,108.6,19.8,107.1,19.8L107.1,19.8z"/>
	</g>
	<g>
		<path class="st0" d="M128.7,21.9c-1.5,0-2.7-0.6-3.7-1.9l-0.7-0.9v2.6h-1.9V6.2h1.9v7.2l0.7-1c1-1.4,2.2-2,3.7-2
			c2.5,0,5.1,2,5.1,5.7C133.8,20,131.2,21.9,128.7,21.9z M128.1,12c-2.1,0-3.8,1.8-3.8,4.1c0,2.4,1.7,4.2,3.8,4.2
			c2.2,0,3.7-1.7,3.7-4.1C131.8,13.8,130.2,12,128.1,12z"/>
		<path class="st1" d="M124,6.6v5.7v2.4l0.4-0.6c-0.3,0.6-0.5,1.4-0.5,2.2c0,2.5,1.8,4.5,4.2,4.5c2.4,0,4.1-1.9,4.1-4.5
			c0-2.6-1.8-4.5-4.1-4.5c-1.1,0-2.1,0.4-2.8,1.2l0.1-0.1c0.9-1.3,2-1.9,3.4-1.9c2.3,0,4.7,1.8,4.7,5.4c0,3.5-2.4,5.3-4.7,5.3
			c-1.4,0-2.5-0.6-3.4-1.8L124,18v2.2v1.1h-1.2V6.6H124 M124.7,5.8H122v16.2h2.7v-1.8c0.8,1.1,2,2.1,4,2.1c2.8,0,5.4-2.2,5.4-6.1v0
			c0-3.9-2.7-6.1-5.4-6.1c-1.9,0-3.1,1-4,2.2V5.8L124.7,5.8z M128.1,20c-1.8,0-3.4-1.5-3.4-3.8v0c0-2.2,1.6-3.8,3.4-3.8
			c1.8,0,3.4,1.5,3.4,3.8v0C131.4,18.5,129.9,20,128.1,20L128.1,20z"/>
		<path class="st2" d="M124.7,5.8v6.4c0.9-1.2,2.1-2.2,4-2.2c2.8,0,5.4,2.2,5.4,6.1v0c0,3.9-2.7,6.1-5.4,6.1c-2,0-3.2-1-4-2.1v1.8
			H122V5.8H124.7 M128.1,20c1.8,0,3.4-1.4,3.4-3.8v0c0-2.3-1.5-3.8-3.4-3.8c-1.8,0-3.4,1.5-3.4,3.8v0C124.6,18.5,126.2,20,128.1,20
			 M125.2,5.3h-0.5H122h-0.5v0.5v16.2v0.5h0.5h2.7h0.5v-0.5v-0.5c1,0.9,2.2,1.3,3.5,1.3c2.9,0,5.9-2.3,5.9-6.6
			c0-4.3-3.1-6.6-5.9-6.6c-1.4,0-2.5,0.4-3.5,1.4V5.8V5.3L125.2,5.3z M128.1,19.5c-1.7,0-2.9-1.4-2.9-3.3c0-1.9,1.3-3.3,2.9-3.3
			c1.7,0,2.9,1.4,2.9,3.3C130.9,18.1,129.7,19.5,128.1,19.5L128.1,19.5z"/>
	</g>
	<g>
		<rect x="137.1" y="6.2" class="st0" width="1.9" height="15.5"/>
		<path class="st1" d="M138.7,6.6v14.7h-1.2V6.6H138.7 M139.4,5.8h-2.7v16.2h2.7V5.8L139.4,5.8z"/>
		<path class="st2" d="M139.4,5.8v16.2h-2.7V5.8H139.4 M139.9,5.3h-0.5h-2.7h-0.5v0.5v16.2v0.5h0.5h2.7h0.5v-0.5V5.8V5.3L139.9,5.3z
			"/>
	</g>
	<g>
		<path class="st0" d="M146,21.9c-1.9,0-3.8-1-3.8-3.2c0-3.1,3.1-3.4,4.5-3.4c1.4,0,2.3,0.2,3,0.5l0.5,0.2v-0.8
			c0-1.9-1.2-2.9-3.3-2.9c-1.2,0-2.2,0.2-3.1,0.6l-0.5-1.4c1.1-0.5,2.3-0.8,4-0.8c1.6,0,2.9,0.4,3.6,1.2c0.8,0.8,1.2,1.9,1.2,3.4
			v6.6h-1.9v-2.1l-0.7,0.8C148.7,21.4,147.5,21.9,146,21.9z M147.2,16.2c-1.9,0-3.1,0.9-3.1,2.3c0,1.3,1.1,2.2,2.7,2.2
			c2,0,3.5-1.2,3.5-2.9v-1.1l-0.2-0.1C149.4,16.5,148.5,16.2,147.2,16.2z"/>
		<path class="st1" d="M147.3,10.9c1.5,0,2.7,0.4,3.4,1.1c0.7,0.7,1,1.7,1,3.1v6.2h-1.1v-0.7v-2.1l0,0c0.1-0.2,0.1-0.5,0.1-0.7V17
			v-0.5l-0.5-0.2c-0.6-0.2-1.6-0.5-2.9-0.5c-2.6,0-3.5,1.4-3.5,2.7c0,1.5,1.2,2.5,3,2.5c0.7,0,1.3-0.1,1.8-0.3
			c-0.7,0.5-1.6,0.8-2.6,0.8c-1.7,0-3.4-0.9-3.4-2.9c0-2.6,2.6-3,4.1-3c1.3,0,2.2,0.2,2.9,0.5l1,0.3v-1v-0.3c0-2.1-1.4-3.3-3.7-3.3
			c-1.2,0-2.1,0.2-2.9,0.5l-0.2-0.7C144.8,11.2,145.8,10.9,147.3,10.9 M147.3,10.2c-1.9,0-3.1,0.4-4.4,1l0.7,2.1
			c1.1-0.4,2-0.7,3.4-0.7c1.9,0,2.9,0.9,2.9,2.6v0.3c-0.9-0.3-1.8-0.5-3.2-0.5c-2.9,0-4.8,1.2-4.8,3.8v0c0,2.4,2,3.6,4.2,3.6
			c1.8,0,3-0.8,3.8-1.7v1.5h2.6v-7c0-1.5-0.4-2.8-1.3-3.6C150.4,10.6,149,10.2,147.3,10.2L147.3,10.2z M146.8,20.3
			c-1.3,0-2.3-0.6-2.3-1.8v0c0-1.2,1-2,2.8-2c1.1,0,2,0.2,2.7,0.5v0.8C149.9,19.3,148.5,20.3,146.8,20.3L146.8,20.3z"/>
		<path class="st2" d="M147.3,10.2c1.8,0,3.1,0.5,3.9,1.3c0.9,0.8,1.3,2.1,1.3,3.6v7h-2.6v-1.5c-0.8,1-2,1.7-3.8,1.7
			c-2.2,0-4.2-1.3-4.2-3.6v0c0-2.5,2-3.8,4.8-3.8c1.3,0,2.2,0.2,3.2,0.5v-0.3c0-1.7-1-2.6-2.9-2.6c-1.3,0-2.3,0.3-3.4,0.7l-0.7-2.1
			C144.2,10.5,145.4,10.2,147.3,10.2 M146.8,20.3c1.8,0,3.1-1,3.1-2.5V17c-0.7-0.3-1.6-0.5-2.7-0.5c-1.7,0-2.8,0.7-2.8,2v0
			C144.5,19.7,145.5,20.3,146.8,20.3 M147.3,9.7c-2.1,0-3.5,0.5-4.6,1l-0.4,0.2l0.1,0.4l0.7,2.1l0.2,0.5l0.5-0.2
			c1-0.4,1.9-0.7,3.2-0.7c1.5,0,2.2,0.5,2.4,1.7c-0.7-0.2-1.5-0.3-2.6-0.3c-3.3,0-5.3,1.6-5.3,4.3c0,2.5,1.9,4.2,4.7,4.2
			c1.3,0,2.4-0.4,3.3-1v0.3v0.5h0.5h2.6h0.5v-0.5v-7c0-1.7-0.5-3.1-1.4-4C150.6,10.2,149.1,9.7,147.3,9.7L147.3,9.7z M146.8,19.8
			c-0.8,0-1.8-0.3-1.8-1.3c0-1.4,1.6-1.5,2.3-1.5c0.9,0,1.7,0.2,2.2,0.3v0.4C149.4,19,148.3,19.8,146.8,19.8L146.8,19.8z"/>
	</g>
	<g>
		<path class="st0" d="M81.5,59.7V29.6h11.6c10.3,0,17,5.8,17,14.9c0,9.3-6.7,15.2-17.2,15.2H81.5z M89.3,52.8h3.9
			c5.5,0,8.9-3.1,8.9-8.2c0-5.2-3.4-8.3-8.9-8.3h-3.9V52.8z"/>
		<path class="st1" d="M93.1,30c10.1,0,16.6,5.7,16.6,14.5v0.1c0,9-6.6,14.7-16.8,14.7h-11V30H93.1 M88.9,53.2h0.8h3.5
			c5.7,0,9.3-3.3,9.3-8.5v-0.1c0-5.2-3.6-8.6-9.3-8.6h-3.5h-0.8v0.8v15.7V53.2 M93.1,29.2H81.2V60h11.8c11.1,0,17.5-6.6,17.5-15.5
			v-0.1C110.4,35.5,104.1,29.2,93.1,29.2L93.1,29.2z M89.7,52.5V36.7h3.5c5.2,0,8.5,2.9,8.5,7.8v0.1c0,5-3.4,7.8-8.5,7.8H89.7
			L89.7,52.5z"/>
		<path class="st2" d="M93.1,29.2c11,0,17.3,6.3,17.3,15.2v0.1c0,8.9-6.5,15.5-17.5,15.5H81.2V29.2H93.1 M89.7,52.5h3.5
			c5.2,0,8.5-2.8,8.5-7.8v-0.1c0-4.9-3.4-7.8-8.5-7.8h-3.5V52.5 M93.1,28.7H81.2h-0.5v0.5V60v0.5h0.5h11.8c10.8,0,18-6.4,18-16v-0.1
			C110.9,34.9,103.9,28.7,93.1,28.7L93.1,28.7z M90.2,37.2h3c5,0,8,2.8,8,7.3v0.1c0,4.6-3,7.3-8,7.3h-3V37.2L90.2,37.2z"/>
	</g>
	<g>
		<path class="st0" d="M123.4,60.2c-6,0-10.8-4.6-10.8-10.4c0-6,4.8-10.6,10.9-10.6c6.1,0,10.8,4.6,10.8,10.4
			C134.2,55.5,129.5,60.2,123.4,60.2z M123.4,44.5c-2.7,0-4.6,2.1-4.6,5c0,2.9,2.1,5.2,4.7,5.2c2.7,0,4.7-2.1,4.7-5
			C128.1,46.8,126,44.5,123.4,44.5z"/>
		<path class="st1" d="M123.4,39.5c5.9,0,10.4,4.4,10.4,10.1v0.1c0,5.7-4.6,10.2-10.5,10.2c-5.8,0-10.4-4.4-10.4-10.1v-0.1
			C113,43.9,117.6,39.5,123.4,39.5 M123.4,55.1c2.9,0,5-2.3,5-5.4v-0.1c0-3.1-2.2-5.5-5.1-5.5c-2.9,0-5,2.3-5,5.4v0.1
			C118.4,52.7,120.6,55.1,123.4,55.1 M123.4,38.7c-6.5,0-11.2,5-11.2,10.9v0.1c0,5.9,4.7,10.8,11.2,10.8c6.5,0,11.3-5,11.3-10.9
			v-0.1C134.6,43.6,129.9,38.7,123.4,38.7L123.4,38.7z M123.4,54.3c-2.5,0-4.3-2.2-4.3-4.7v-0.1c0-2.5,1.7-4.7,4.2-4.7
			c2.5,0,4.4,2.2,4.4,4.7v0.1C127.7,52.2,126,54.3,123.4,54.3L123.4,54.3z"/>
		<path class="st2" d="M123.4,38.7c6.5,0,11.2,4.9,11.2,10.8v0.1c0,5.9-4.7,10.9-11.3,10.9c-6.5,0-11.2-4.9-11.2-10.8v-0.1
			C112.2,43.7,116.9,38.7,123.4,38.7 M123.4,54.3c2.6,0,4.3-2.1,4.3-4.6v-0.1c0-2.6-1.8-4.7-4.4-4.7c-2.6,0-4.2,2.1-4.2,4.7v0.1
			C119.1,52.2,120.9,54.3,123.4,54.3 M123.4,38.2c-6.6,0-11.7,5-11.7,11.4v0.1c0,6.3,5.1,11.3,11.7,11.3c6.6,0,11.8-5,11.8-11.4
			v-0.1C135.1,43.2,130,38.2,123.4,38.2L123.4,38.2z M123.4,53.8c-2.1,0-3.8-1.8-3.8-4.2v-0.1c0-2.1,1.3-4.2,3.7-4.2
			c2.2,0,3.9,1.9,3.9,4.2v0.1C127.2,51.8,125.9,53.8,123.4,53.8L123.4,53.8z"/>
	</g>
	<g>
		<path class="st0" d="M147.7,60.2c-5.7,0-10.3-4.6-10.3-10.4c0-6.1,4.5-10.6,10.5-10.6c3.6,0,6.3,1.4,8.2,4.2l-4.2,3.3
			c-0.8-1.1-2-2-3.9-2c-2.5,0-4.4,2.2-4.4,5c0,3,1.9,5.2,4.4,5.2c1.9,0,3-0.9,4-2l4.2,3.1C154.1,58.8,151.4,60.2,147.7,60.2z"/>
		<path class="st1" d="M147.9,39.5c3.3,0,5.9,1.2,7.7,3.7l-3.7,2.8c-0.9-1-2.1-1.9-3.9-1.9c-2.7,0-4.8,2.4-4.8,5.4v0.1
			c0,3.2,2,5.5,4.8,5.5c1.9,0,3.1-0.9,4-1.9l3.6,2.7c-1.9,2.6-4.5,3.9-8,3.9c-5.5,0-9.9-4.4-9.9-10.1v-0.1
			C137.8,43.9,142.1,39.5,147.9,39.5 M147.9,38.8c-6.4,0-10.9,5-10.9,10.9v0.1c0,5.9,4.5,10.8,10.6,10.8c4.4,0,7.1-1.9,9-4.8
			l-4.8-3.5c-1.1,1.3-2.2,2.2-3.9,2.2c-2.4,0-4.1-2-4.1-4.7v-0.1c0-2.5,1.7-4.7,4-4.7c1.7,0,2.8,0.8,3.8,2.2l4.8-3.7
			C154.8,40.6,152.1,38.8,147.9,38.8L147.9,38.8z"/>
		<path class="st2" d="M147.9,38.8c4.2,0,6.9,1.8,8.7,4.6l-4.8,3.7c-1-1.3-2.1-2.2-3.8-2.2c-2.3,0-4,2.1-4,4.7v0.1
			c0,2.7,1.7,4.7,4.1,4.7c1.7,0,2.8-0.8,3.9-2.2l4.8,3.5c-1.9,2.9-4.6,4.8-9,4.8c-6.2,0-10.6-4.9-10.6-10.8v-0.1
			C137,43.7,141.5,38.8,147.9,38.8 M147.9,38.3c-6.5,0-11.4,4.9-11.4,11.4v0.1c0,6.3,4.9,11.3,11.1,11.3c4.1,0,7.2-1.6,9.4-5
			l0.3-0.4l-0.4-0.3l-4.8-3.5l-0.4-0.3l-0.3,0.4c-1,1.2-1.9,2-3.5,2c-2.1,0-3.6-1.8-3.6-4.2v-0.1c0-2.3,1.5-4.2,3.5-4.2
			c1.3,0,2.3,0.6,3.4,2l0.3,0.4l0.4-0.3l4.8-3.7l0.4-0.3l-0.2-0.4C155,39.9,151.9,38.3,147.9,38.3L147.9,38.3z"/>
	</g>
	<g>
		<path class="st0" d="M167.5,60.1c-4.4,0-6.4-2.1-6.4-6.5v-8.9h-2.4v-5.1h2.4v-5.3h6.3v5.3h4.7v5.1h-4.7v7.5c0,1.6,0.8,2.5,2.3,2.5
			c0.8,0,1.5-0.2,2.3-0.5V59C171.1,59.5,169.6,60.1,167.5,60.1z"/>
		<path class="st1" d="M167,34.7v4.5v0.8h0.8h4v4.4h-4H167V45v7.1c0,2.3,1.5,2.8,2.7,2.8c0.6,0,1.3-0.1,2-0.3v4.1
			c-0.9,0.5-2.3,0.9-4.2,0.9c-4.2,0-6-1.9-6-6.1V45v-0.8h-0.8H159v-4.4h1.7h0.8v-0.8v-4.5H167 M167.8,33.9h-7.1v5.3h-2.4V45h2.4v8.5
			c0,5,2.5,6.9,6.8,6.9c2,0,3.7-0.5,5-1.2v-5.7c-0.9,0.4-1.8,0.7-2.7,0.7c-1.3,0-2-0.6-2-2.1V45h4.7v-5.9h-4.7V33.9L167.8,33.9z"/>
		<path class="st2" d="M167.8,33.9v5.3h4.7V45h-4.7v7.1c0,1.5,0.6,2.1,2,2.1c0.9,0,1.8-0.3,2.7-0.7v5.7c-1.3,0.7-3,1.2-5,1.2
			c-4.3,0-6.8-1.9-6.8-6.9V45h-2.4v-5.9h2.4v-5.3H167.8 M168.3,33.4h-0.5h-7.1h-0.5v0.5v4.8h-1.9h-0.5v0.5V45v0.5h0.5h1.9v8
			c0,4.9,2.5,7.4,7.3,7.4c1.9,0,3.7-0.4,5.2-1.3l0.3-0.1v-0.3v-5.7v-0.8l-0.7,0.4c-0.9,0.4-1.7,0.6-2.5,0.6c-0.9,0-1.5-0.3-1.5-1.6
			v-6.6h4.2h0.5V45v-5.9v-0.5h-0.5h-4.2v-4.8V33.4L168.3,33.4z"/>
	</g>
	<g>
		<path class="st0" d="M185.6,60.2c-6,0-10.8-4.6-10.8-10.4c0-6,4.8-10.6,10.9-10.6c6.1,0,10.8,4.6,10.8,10.4
			C196.5,55.5,191.7,60.2,185.6,60.2z M185.6,44.5c-2.7,0-4.6,2.1-4.6,5c0,2.9,2.1,5.2,4.7,5.2c2.7,0,4.7-2.1,4.7-5
			C190.3,46.8,188.2,44.5,185.6,44.5z"/>
		<path class="st1" d="M185.6,39.5c5.9,0,10.4,4.4,10.4,10.1v0.1c0,5.7-4.6,10.2-10.5,10.2c-5.8,0-10.4-4.4-10.4-10.1v-0.1
			C175.2,43.9,179.8,39.5,185.6,39.5 M185.6,55.1c2.9,0,5-2.3,5-5.4v-0.1c0-3.1-2.2-5.5-5.1-5.5c-2.9,0-5,2.3-5,5.4v0.1
			C180.6,52.7,182.8,55.1,185.6,55.1 M185.6,38.7c-6.5,0-11.2,5-11.2,10.9v0.1c0,5.9,4.7,10.8,11.2,10.8c6.5,0,11.3-5,11.3-10.9
			v-0.1C196.8,43.6,192.1,38.7,185.6,38.7L185.6,38.7z M185.6,54.3c-2.5,0-4.3-2.2-4.3-4.7v-0.1c0-2.5,1.7-4.7,4.2-4.7
			c2.5,0,4.4,2.2,4.4,4.7v0.1C189.9,52.2,188.2,54.3,185.6,54.3L185.6,54.3z"/>
		<path class="st2" d="M185.6,38.7c6.5,0,11.2,4.9,11.2,10.8v0.1c0,5.9-4.7,10.9-11.3,10.9c-6.5,0-11.2-4.9-11.2-10.8v-0.1
			C174.4,43.7,179.1,38.7,185.6,38.7 M185.6,54.3c2.6,0,4.3-2.1,4.3-4.6v-0.1c0-2.6-1.8-4.7-4.4-4.7c-2.6,0-4.2,2.1-4.2,4.7v0.1
			C181.3,52.2,183.1,54.3,185.6,54.3 M185.6,38.2c-6.6,0-11.7,5-11.7,11.4v0.1c0,6.3,5.1,11.3,11.7,11.3c6.6,0,11.8-5,11.8-11.4
			v-0.1C197.3,43.2,192.2,38.2,185.6,38.2L185.6,38.2z M185.6,53.8c-2.1,0-3.8-1.8-3.8-4.2v-0.1c0-2.1,1.3-4.2,3.7-4.2
			c2.2,0,3.9,1.9,3.9,4.2v0.1C189.4,51.8,188.1,53.8,185.6,53.8L185.6,53.8z"/>
	</g>
	<g>
		<path class="st0" d="M200.4,59.7V39.6h6.4v5.7l0.7-1.8c1.2-2.9,3-4.3,5.7-4.3c0,0,0,0,0,0v7H213c-2.8,0-6.2,1.3-6.2,7.3v6.1H200.4
			z"/>
		<path class="st1" d="M212.8,39.6v6.2c-3,0-6.4,1.4-6.4,7.7v5.8h-5.6V39.9h5.6v3.4v3.8l1.4-3.5C209,41,210.5,39.7,212.8,39.6
			 M213.2,38.8c-3.1,0-4.9,1.8-6,4.6v-4.2H200V60h7.1v-6.5c0-4.8,2.1-7,5.8-7h0.6v-7.7C213.5,38.8,213.3,38.8,213.2,38.8L213.2,38.8
			z"/>
		<path class="st2" d="M213.2,38.8c0.1,0,0.3,0,0.4,0v7.7H213c-3.7,0-5.8,2.2-5.8,7V60H200V39.2h7.1v4.2
			C208.3,40.7,210.1,38.8,213.2,38.8 M213.2,38.3c-2.4,0-4.2,1-5.5,3v-2.1v-0.5h-0.5H200h-0.5v0.5V60v0.5h0.5h7.1h0.5V60v-6.5
			c0-4.4,1.7-6.5,5.3-6.5h0.6h0.5v-0.5v-7.7v-0.5l-0.5,0C213.5,38.3,213.3,38.3,213.2,38.3L213.2,38.3z"/>
	</g>
	<g>
		<g>
			<linearGradient id="SVGID_1_" gradientUnits="userSpaceOnUse" x1="0.25" y1="33.187" x2="75.9737" y2="33.187">
				<stop  offset="0" style="stop-color:#8FBD3A"/>
				<stop  offset="1" style="stop-color:#0B9444"/>
			</linearGradient>
			<path class="st3" d="M66.1,33.2c0,6.3-1.8,12.3-4.9,17.3C59.7,53,76,61.3,76,61.3s-34.1,4.8-42.8,4.8C15,66.1,0.3,51.4,0.3,33.2
				S15,0.3,33.2,0.3S66.1,15,66.1,33.2z"/>
			<path class="st4" d="M66.1,33.2c0,6.3-1.8,12.3-4.9,17.3C59.7,53,76,61.3,76,61.3s-34.1,4.8-42.8,4.8C15,66.1,0.3,51.4,0.3,33.2
				S15,0.3,33.2,0.3S66.1,15,66.1,33.2z"/>
			<g class="st5">
				<path class="st1" d="M33.2,1c17.7,0,32.2,14.4,32.2,32.2c0,6-1.7,11.8-4.8,16.9c-0.2,0.3-0.3,0.7-0.1,1.2
					c0.7,2.6,8.9,7.3,13.1,9.6c-7.8,1.1-33.1,4.5-40.4,4.5C15.4,65.4,1,50.9,1,33.2S15.4,1,33.2,1 M33.2,0.2C15,0.2,0.3,15,0.3,33.2
					S15,66.1,33.2,66.1c8.7,0,42.8-4.8,42.8-4.8S59.7,53,61.2,50.5c3.1-5,4.9-11,4.9-17.3C66.1,15,51.4,0.2,33.2,0.2L33.2,0.2z"/>
			</g>
		</g>
		<path class="st6" d="M38.1,33.2c12.8,4.2,21.5,3.9,27.9,3c0.1-1,0.2-2,0.2-3C66.1,15,51.4,0.3,33.2,0.3
			C16.9,0.3,3.4,12.1,0.7,27.6C10.1,28,26,29.2,38.1,33.2z"/>
	</g>
	<g>
		<polygon class="st7" points="57.1,27.7 41.8,27.7 41.8,12.4 27.6,12.4 27.6,27.7 12.3,27.7 12.3,41.9 27.6,41.9 27.6,57.2 
			41.8,57.2 41.8,41.9 57.1,41.9 		"/>
		<polygon class="st8" points="56.1,26.8 40.8,26.8 40.8,11.5 26.7,11.5 26.7,26.8 11.4,26.8 11.4,40.9 26.7,40.9 26.7,56.2 
			40.8,56.2 40.8,40.9 56.1,40.9 		"/>
	</g>
</g>
</svg>
