<?xml version="1.0" encoding="utf-8"?>
<!-- Generator: Adobe Illustrator 21.0.2, SVG Export Plug-In . SVG Version: 6.00 Build 0)  -->
<svg version="1.1" id="Слой_1" xmlns="http://www.w3.org/2000/svg" xmlns:xlink="http://www.w3.org/1999/xlink" x="0px" y="0px"
	 viewBox="0 0 286.9 117" style="enable-background:new 0 0 286.9 117;" xml:space="preserve">
<style type="text/css">
	.st0{fill:#283956;}
</style>
<g>
	<g>
		<path class="st0" d="M58,85.2c0,2.1-0.4,4-1.3,5.7c-0.8,1.7-2,3-3.4,4c-1.2,0.7-2.3,1.2-3.5,1.5c-1.2,0.2-2.7,0.4-4.6,0.4h-5.3
			v-23h5.2c2.2,0,3.9,0.2,5.1,0.5c1.2,0.3,2.3,0.8,3.1,1.3c1.5,1,2.6,2.3,3.4,3.9C57.6,81,58,82.9,58,85.2z M54.8,85.1
			c0-1.8-0.3-3.3-0.9-4.5c-0.6-1.3-1.5-2.2-2.6-2.9c-0.8-0.5-1.7-0.9-2.6-1.1c-0.9-0.2-2.1-0.3-3.5-0.3h-2.3V94h2.3
			c1.4,0,2.6-0.1,3.6-0.3c1-0.2,2-0.6,2.8-1.2c1.1-0.7,1.9-1.7,2.4-2.9S54.8,86.9,54.8,85.1z"/>
		<path class="st0" d="M75.6,88c0,2.9-0.7,5.1-2.1,6.7c-1.4,1.6-3.3,2.4-5.6,2.4c-2.4,0-4.3-0.8-5.7-2.4c-1.4-1.6-2.1-3.9-2.1-6.7
			c0-2.9,0.7-5.1,2.1-6.7c1.4-1.6,3.3-2.4,5.6-2.4c2.3,0,4.2,0.8,5.6,2.4C74.9,82.9,75.6,85.2,75.6,88z M72.6,88
			c0-2.2-0.4-3.9-1.2-5c-0.8-1.1-2-1.6-3.5-1.6c-1.5,0-2.7,0.5-3.5,1.6c-0.8,1.1-1.2,2.7-1.2,5c0,2.2,0.4,3.8,1.2,4.9
			c0.8,1.1,2,1.7,3.5,1.7c1.5,0,2.7-0.5,3.5-1.6C72.2,91.9,72.6,90.3,72.6,88z"/>
		<path class="st0" d="M81.9,96.7H79v-24h2.9V96.7z"/>
		<path class="st0" d="M101,87.6c0,2.9-0.7,5.2-2.1,6.9c-1.4,1.7-3.1,2.6-5.2,2.6c-0.9,0-1.6-0.1-2.3-0.3c-0.7-0.2-1.3-0.5-2-0.9
			v6.2h-2.9V79.4h2.9v1.8c0.7-0.6,1.5-1.2,2.4-1.6c0.9-0.4,1.8-0.7,2.9-0.7c2,0,3.5,0.8,4.6,2.3C100.4,82.8,101,84.9,101,87.6z
			 M98,87.9c0-2-0.3-3.5-0.9-4.6c-0.6-1.1-1.6-1.6-3.1-1.6c-0.8,0-1.6,0.2-2.4,0.5c-0.8,0.4-1.5,0.8-2.2,1.4v9.8
			c0.8,0.4,1.4,0.6,2,0.8c0.5,0.1,1.2,0.2,1.9,0.2c1.5,0,2.7-0.6,3.5-1.7C97.5,91.6,98,90,98,87.9z"/>
		<path class="st0" d="M117.9,96.7H115v-9.8c0-0.8,0-1.5-0.1-2.2c-0.1-0.7-0.2-1.2-0.4-1.6c-0.2-0.4-0.6-0.8-1-1s-1-0.3-1.7-0.3
			c-0.7,0-1.5,0.2-2.2,0.6c-0.8,0.4-1.5,0.9-2.2,1.5v12.9h-2.9v-24h2.9v8.7c0.9-0.8,1.7-1.4,2.6-1.8c0.8-0.4,1.7-0.6,2.7-0.6
			c1.7,0,3,0.6,4,1.7s1.4,2.7,1.4,4.9V96.7z"/>
		<path class="st0" d="M125.4,76.5h-3.3v-3h3.3V76.5z M125.2,96.7h-2.9V79.4h2.9V96.7z"/>
		<path class="st0" d="M143.4,96.7h-2.9v-9.8c0-0.8,0-1.5-0.1-2.2c-0.1-0.7-0.2-1.2-0.4-1.6c-0.2-0.4-0.6-0.8-1-1s-1-0.3-1.7-0.3
			c-0.7,0-1.5,0.2-2.2,0.6c-0.8,0.4-1.5,0.9-2.2,1.5v12.9h-2.9V79.4h2.9v1.9c0.9-0.8,1.7-1.4,2.6-1.8c0.8-0.4,1.7-0.6,2.7-0.6
			c1.7,0,3,0.6,4,1.7c1,1.1,1.4,2.7,1.4,4.9V96.7z"/>
		<path class="st0" d="M174.3,73.7l-7.8,12.8v10.2h-3.1v-9.9l-7.8-13.2h3.4l5.9,10.2l6-10.2H174.3z"/>
		<path class="st0" d="M184.1,94.8c-0.2,0.2-0.6,0.4-1,0.7c-0.4,0.3-0.8,0.6-1.2,0.7c-0.5,0.3-1,0.5-1.5,0.6c-0.5,0.1-1.2,0.2-2,0.2
			c-0.7,0-1.4-0.1-2-0.4c-0.6-0.3-1.2-0.6-1.7-1.1c-0.5-0.5-0.8-1.1-1.1-1.8s-0.4-1.4-0.4-2.2c0-1.2,0.3-2.2,0.8-3.1
			c0.5-0.8,1.3-1.5,2.4-2c1-0.4,2.1-0.7,3.4-0.9s2.7-0.3,4.3-0.4v-0.6c0-0.7-0.1-1.2-0.3-1.6c-0.2-0.4-0.5-0.7-0.9-1
			c-0.4-0.2-0.8-0.4-1.4-0.5c-0.5-0.1-1.1-0.1-1.7-0.1c-0.7,0-1.5,0.1-2.4,0.3c-0.9,0.2-1.8,0.5-2.7,0.9h-0.2v-3
			c0.5-0.2,1.3-0.3,2.3-0.5s2-0.3,3-0.3c1.2,0,2.2,0.1,3,0.3s1.5,0.5,2.2,1c0.6,0.5,1.1,1.1,1.4,1.8c0.3,0.8,0.5,1.7,0.5,2.8v11.8
			h-2.9V94.8z M184.1,92.4v-4.8c-0.7,0.1-1.6,0.1-2.6,0.3c-1.1,0.1-1.9,0.3-2.6,0.5c-0.8,0.2-1.4,0.6-1.9,1.1
			c-0.5,0.5-0.8,1.2-0.8,2c0,1,0.3,1.7,0.8,2.2c0.6,0.5,1.4,0.8,2.4,0.8c0.9,0,1.7-0.2,2.5-0.6C182.8,93.5,183.5,93,184.1,92.4z"/>
		<path class="st0" d="M198.3,97.1c-1.2,0-2.3-0.2-3.3-0.5c-1-0.4-1.8-0.9-2.5-1.7c-0.7-0.7-1.3-1.7-1.7-2.8c-0.4-1.1-0.6-2.5-0.6-4
			c0-1.5,0.2-2.8,0.6-3.9c0.4-1.1,1-2,1.6-2.8s1.5-1.3,2.5-1.7c1-0.4,2.1-0.6,3.3-0.6c0.9,0,1.9,0.1,2.7,0.4
			c0.9,0.3,1.7,0.6,2.4,0.9v3.3h-0.2c-0.2-0.2-0.5-0.4-0.8-0.6c-0.3-0.2-0.7-0.5-1.2-0.7c-0.4-0.2-0.9-0.4-1.4-0.5
			c-0.5-0.2-1.1-0.2-1.6-0.2c-1.5,0-2.7,0.6-3.6,1.7c-0.9,1.1-1.4,2.7-1.4,4.8c0,2,0.4,3.6,1.3,4.8c0.9,1.1,2.1,1.7,3.7,1.7
			c0.9,0,1.8-0.2,2.7-0.6c0.9-0.4,1.6-0.9,2.3-1.5h0.2v3.3c-0.3,0.1-0.6,0.3-1.1,0.5c-0.4,0.2-0.8,0.3-1.2,0.4
			c-0.5,0.1-0.9,0.3-1.3,0.3C199.4,97,198.9,97.1,198.3,97.1z"/>
		<path class="st0" d="M219.9,96.7H217v-9.8c0-0.8,0-1.5-0.1-2.2c-0.1-0.7-0.2-1.2-0.4-1.6c-0.2-0.4-0.6-0.8-1-1s-1-0.3-1.7-0.3
			c-0.7,0-1.5,0.2-2.2,0.6c-0.8,0.4-1.5,0.9-2.2,1.5v12.9h-2.9v-24h2.9v8.7c0.9-0.8,1.7-1.4,2.6-1.8c0.8-0.4,1.7-0.6,2.7-0.6
			c1.7,0,3,0.6,4,1.7c1,1.1,1.4,2.7,1.4,4.9V96.7z"/>
		<path class="st0" d="M229.5,97c-1.6,0-2.8-0.5-3.7-1.4c-0.9-0.9-1.3-2.3-1.3-4.3v-9.6h-2v-2.4h2v-5h2.9v5h5.3v2.4h-5.3V90
			c0,0.9,0,1.6,0,2c0,0.5,0.1,0.9,0.4,1.3c0.2,0.4,0.5,0.6,0.9,0.8c0.4,0.2,0.9,0.3,1.6,0.3c0.5,0,0.9-0.1,1.4-0.2
			c0.4-0.1,0.8-0.3,1-0.3h0.2v2.6c-0.5,0.2-1.1,0.3-1.7,0.4C230.5,97,230,97,229.5,97z"/>
		<path class="st0" d="M239.9,97.1c-1.2,0-2.2-0.2-3.2-0.5c-1-0.3-1.8-0.6-2.5-1v-3.3h0.2c0.2,0.2,0.5,0.4,0.9,0.6
			c0.3,0.2,0.8,0.5,1.3,0.7c0.5,0.2,1,0.4,1.6,0.6c0.6,0.2,1.2,0.3,1.8,0.3c0.5,0,1-0.1,1.5-0.2c0.5-0.1,0.9-0.2,1.2-0.4
			c0.4-0.2,0.6-0.5,0.8-0.8c0.2-0.3,0.2-0.7,0.2-1.2c0-0.7-0.2-1.2-0.6-1.6c-0.4-0.4-1-0.6-2-0.9c-0.4-0.1-0.9-0.2-1.5-0.3
			c-0.6-0.1-1.1-0.3-1.7-0.4c-1.3-0.4-2.3-1-2.9-1.8s-0.9-1.8-0.9-2.9c0-1.6,0.6-2.8,1.8-3.8c1.2-1,2.7-1.5,4.7-1.5
			c1,0,1.9,0.1,2.9,0.4c1,0.2,1.8,0.5,2.4,0.9v3.1h-0.2c-0.7-0.6-1.6-1.1-2.5-1.4c-0.9-0.3-1.8-0.5-2.8-0.5c-1,0-1.8,0.2-2.4,0.6
			s-1,1-1,1.8c0,0.7,0.2,1.3,0.6,1.6s1,0.6,1.9,0.9c0.4,0.1,0.9,0.2,1.4,0.3c0.5,0.1,1.1,0.2,1.7,0.4c1.3,0.3,2.2,0.9,2.9,1.6
			c0.6,0.7,1,1.8,1,3c0,0.7-0.1,1.4-0.4,2.1c-0.3,0.7-0.7,1.2-1.3,1.7c-0.6,0.5-1.3,0.9-2.1,1.2C242,97,241.1,97.1,239.9,97.1z"/>
	</g>
	<g>
		<path class="st0" d="M5,116.8H0v-1.3h1.6v-10.2H0v-1.3h5v1.3H3.3v10.2H5V116.8z"/>
		<path class="st0" d="M16.9,116.8H15l-5.7-11v11H7.8v-12.8h2.4l5.2,10.1v-10.1h1.6V116.8z"/>
		<path class="st0" d="M23.2,116.8v-11.3h-4.3v-1.5h10.3v1.5h-4.3v11.3H23.2z"/>
		<path class="st0" d="M31.2,116.8v-12.8h8v1.5h-6.3v3.5h5.9v1.5h-5.9v4.8h6.3v1.5H31.2z"/>
		<path class="st0" d="M51.7,116.8h-2.2l-4.1-5.1h-1.9v5.1h-1.7v-12.8h3.3c0.7,0,1.3,0,1.8,0.1c0.5,0.1,1,0.3,1.4,0.6
			c0.4,0.3,0.8,0.7,1.1,1.1c0.3,0.5,0.4,1,0.4,1.7c0,0.9-0.2,1.7-0.7,2.4c-0.5,0.6-1.1,1.1-1.9,1.4L51.7,116.8z M48.1,107.6
			c0-0.4-0.1-0.7-0.2-1c-0.1-0.3-0.3-0.5-0.6-0.7c-0.2-0.2-0.5-0.3-0.8-0.3c-0.3-0.1-0.7-0.1-1.2-0.1h-1.7v4.8H45
			c0.5,0,0.9,0,1.3-0.1c0.4-0.1,0.7-0.3,1-0.5c0.2-0.2,0.4-0.5,0.5-0.9C48,108.4,48.1,108,48.1,107.6z"/>
		<path class="st0" d="M62.6,116.8h-1.9l-5.7-11v11h-1.6v-12.8h2.4l5.2,10.1v-10.1h1.6V116.8z"/>
		<path class="st0" d="M64.5,116.8l4.3-12.8H71l4.3,12.8h-1.8l-1.2-3.6h-4.9l-1.2,3.6H64.5z M71.9,111.7l-2-6l-2,6H71.9z"/>
		<path class="st0" d="M79.2,116.8v-11.3h-4.3v-1.5h10.3v1.5h-4.3v11.3H79.2z"/>
		<path class="st0" d="M91.7,116.8h-5v-1.3h1.6v-10.2h-1.6v-1.3h5v1.3H90v10.2h1.6V116.8z"/>
		<path class="st0" d="M103.5,105.4c0.5,0.6,0.9,1.3,1.1,2.1c0.3,0.8,0.4,1.8,0.4,2.8c0,1-0.1,2-0.4,2.8c-0.3,0.8-0.6,1.5-1.1,2.1
			c-0.5,0.6-1.1,1-1.8,1.3c-0.7,0.3-1.5,0.4-2.3,0.4c-0.9,0-1.6-0.1-2.3-0.4c-0.7-0.3-1.3-0.7-1.8-1.3c-0.5-0.6-0.9-1.3-1.1-2.1
			s-0.4-1.8-0.4-2.8c0-1.1,0.1-2,0.4-2.8c0.3-0.8,0.6-1.5,1.1-2.1c0.5-0.6,1.1-1,1.8-1.3c0.7-0.3,1.5-0.4,2.3-0.4
			c0.9,0,1.7,0.2,2.4,0.5C102.5,104.4,103.1,104.9,103.5,105.4z M103.3,110.4c0-0.8-0.1-1.6-0.3-2.3c-0.2-0.7-0.4-1.2-0.8-1.6
			c-0.3-0.4-0.7-0.8-1.2-1c-0.5-0.2-1-0.3-1.6-0.3c-0.6,0-1.2,0.1-1.6,0.3c-0.5,0.2-0.9,0.5-1.2,1c-0.3,0.4-0.6,1-0.8,1.6
			s-0.3,1.4-0.3,2.2c0,1.7,0.4,3,1.1,3.9c0.7,0.9,1.7,1.3,2.8,1.3c1.2,0,2.1-0.4,2.8-1.3C103,113.3,103.3,112,103.3,110.4z"/>
		<path class="st0" d="M116.8,116.8h-1.9l-5.7-11v11h-1.6v-12.8h2.4l5.2,10.1v-10.1h1.6V116.8z"/>
		<path class="st0" d="M118.7,116.8l4.3-12.8h2.1l4.3,12.8h-1.8l-1.2-3.6h-4.9l-1.2,3.6H118.7z M126,111.7l-2-6l-2,6H126z"/>
		<path class="st0" d="M138.8,116.8h-7.4v-12.8h1.7v11.3h5.7V116.8z"/>
		<path class="st0" d="M156,103.9l-4.3,7.1v5.7H150v-5.5l-4.3-7.3h1.9l3.3,5.7l3.4-5.7H156z"/>
		<path class="st0" d="M155.9,116.8l4.3-12.8h2.1l4.3,12.8h-1.8l-1.2-3.6h-4.9l-1.2,3.6H155.9z M163.2,111.7l-2-6l-2,6H163.2z"/>
		<path class="st0" d="M173.6,117c-0.8,0-1.6-0.1-2.3-0.4c-0.7-0.3-1.3-0.7-1.8-1.3c-0.5-0.6-0.9-1.3-1.2-2.1
			c-0.3-0.8-0.4-1.8-0.4-2.9c0-1.1,0.1-2,0.4-2.8c0.3-0.8,0.7-1.5,1.2-2.1c0.5-0.6,1.1-1,1.8-1.3c0.7-0.3,1.5-0.5,2.3-0.5
			c0.4,0,0.8,0,1.2,0.1c0.4,0.1,0.7,0.1,1,0.2c0.3,0.1,0.6,0.2,0.8,0.3s0.6,0.3,0.9,0.4v2.1h-0.1c-0.1-0.1-0.3-0.3-0.6-0.5
			c-0.2-0.2-0.5-0.4-0.9-0.6c-0.3-0.2-0.7-0.3-1.1-0.4c-0.4-0.1-0.8-0.2-1.3-0.2c-0.5,0-1.1,0.1-1.5,0.3s-0.9,0.6-1.3,1
			c-0.4,0.4-0.6,1-0.8,1.6s-0.3,1.4-0.3,2.2c0,0.9,0.1,1.6,0.3,2.3c0.2,0.6,0.5,1.2,0.9,1.6c0.4,0.4,0.8,0.7,1.3,1
			c0.5,0.2,1,0.3,1.5,0.3c0.5,0,0.9-0.1,1.4-0.2c0.4-0.1,0.8-0.3,1.1-0.5c0.3-0.2,0.6-0.4,0.8-0.5c0.2-0.2,0.4-0.3,0.5-0.5h0.1v2
			c-0.3,0.1-0.5,0.3-0.8,0.4c-0.2,0.1-0.6,0.2-0.9,0.4c-0.4,0.1-0.7,0.2-1,0.3C174.5,117,174.1,117,173.6,117z"/>
		<path class="st0" d="M189.1,116.8h-1.7v-6.3h-5.9v6.3h-1.7v-12.8h1.7v5h5.9v-5h1.7V116.8z"/>
		<path class="st0" d="M195.4,116.8v-11.3h-4.3v-1.5h10.3v1.5h-4.3v11.3H195.4z"/>
		<path class="st0" d="M218.3,112.8c0,0.6-0.1,1.2-0.4,1.7c-0.2,0.5-0.6,0.9-1,1.2c-0.5,0.4-1,0.6-1.5,0.8c-0.6,0.2-1.3,0.2-2.1,0.2
			h-3.7v-12.8h3.4c0.9,0,1.6,0,2.1,0.1c0.5,0.1,0.9,0.2,1.3,0.4c0.5,0.2,0.8,0.6,1,1c0.2,0.4,0.3,0.9,0.3,1.4c0,0.6-0.2,1.1-0.5,1.6
			c-0.3,0.5-0.8,0.8-1.3,1.1v0.1c0.8,0.2,1.4,0.6,1.8,1.1C218.1,111.3,218.3,112,218.3,112.8z M216,107.1c0-0.3-0.1-0.6-0.2-0.8
			c-0.1-0.2-0.3-0.4-0.5-0.5c-0.3-0.2-0.6-0.2-0.9-0.3c-0.3,0-0.8-0.1-1.4-0.1h-1.6v3.8h1.9c0.5,0,0.9,0,1.2-0.1
			c0.3-0.1,0.5-0.2,0.8-0.3c0.3-0.2,0.4-0.4,0.6-0.7C215.9,107.8,216,107.5,216,107.1z M216.6,112.9c0-0.5-0.1-0.9-0.2-1.2
			c-0.1-0.3-0.4-0.6-0.8-0.8c-0.3-0.1-0.6-0.2-0.9-0.3c-0.3,0-0.8-0.1-1.4-0.1h-1.9v4.7h1.4c0.7,0,1.3,0,1.8-0.1
			c0.4-0.1,0.8-0.2,1.1-0.4c0.3-0.2,0.6-0.5,0.7-0.8C216.5,113.7,216.6,113.3,216.6,112.9z"/>
		<path class="st0" d="M230.6,116.8h-2.2l-4.1-5.1h-1.9v5.1h-1.7v-12.8h3.3c0.7,0,1.3,0,1.8,0.1c0.5,0.1,1,0.3,1.4,0.6
			c0.4,0.3,0.8,0.7,1.1,1.1c0.3,0.5,0.4,1,0.4,1.7c0,0.9-0.2,1.7-0.7,2.4c-0.5,0.6-1.1,1.1-1.9,1.4L230.6,116.8z M227,107.6
			c0-0.4-0.1-0.7-0.2-1c-0.1-0.3-0.3-0.5-0.6-0.7c-0.2-0.2-0.5-0.3-0.8-0.3c-0.3-0.1-0.7-0.1-1.2-0.1h-1.7v4.8h1.5
			c0.5,0,0.9,0,1.3-0.1c0.4-0.1,0.7-0.3,1-0.5c0.2-0.2,0.4-0.5,0.5-0.9C226.9,108.4,227,108,227,107.6z"/>
		<path class="st0" d="M241.4,105.4c0.5,0.6,0.9,1.3,1.1,2.1c0.3,0.8,0.4,1.8,0.4,2.8c0,1-0.1,2-0.4,2.8c-0.3,0.8-0.6,1.5-1.1,2.1
			c-0.5,0.6-1.1,1-1.8,1.3c-0.7,0.3-1.5,0.4-2.3,0.4c-0.9,0-1.6-0.1-2.3-0.4c-0.7-0.3-1.3-0.7-1.8-1.3c-0.5-0.6-0.9-1.3-1.1-2.1
			s-0.4-1.8-0.4-2.8c0-1.1,0.1-2,0.4-2.8c0.3-0.8,0.6-1.5,1.1-2.1c0.5-0.6,1.1-1,1.8-1.3s1.5-0.4,2.3-0.4c0.9,0,1.7,0.2,2.4,0.5
			C240.4,104.4,240.9,104.9,241.4,105.4z M241.2,110.4c0-0.8-0.1-1.6-0.3-2.3c-0.2-0.7-0.4-1.2-0.8-1.6c-0.3-0.4-0.7-0.8-1.2-1
			c-0.5-0.2-1-0.3-1.6-0.3c-0.6,0-1.2,0.1-1.6,0.3c-0.5,0.2-0.9,0.5-1.2,1c-0.3,0.4-0.6,1-0.8,1.6c-0.2,0.7-0.3,1.4-0.3,2.2
			c0,1.7,0.4,3,1.1,3.9c0.7,0.9,1.7,1.3,2.8,1.3c1.2,0,2.1-0.4,2.8-1.3C240.8,113.3,241.2,112,241.2,110.4z"/>
		<path class="st0" d="M254.9,116.8h-2.2l-4.7-6l-0.7,0.8v5.1h-1.7v-12.8h1.7v5.9l5.2-5.9h2.1l-5.3,5.7L254.9,116.8z"/>
		<path class="st0" d="M256.6,116.8v-12.8h8v1.5h-6.3v3.5h5.9v1.5h-5.9v4.8h6.3v1.5H256.6z"/>
		<path class="st0" d="M277.1,116.8h-2.2l-4.1-5.1h-1.9v5.1h-1.7v-12.8h3.3c0.7,0,1.3,0,1.8,0.1c0.5,0.1,1,0.3,1.4,0.6
			c0.4,0.3,0.8,0.7,1.1,1.1c0.3,0.5,0.4,1,0.4,1.7c0,0.9-0.2,1.7-0.7,2.4c-0.5,0.6-1.1,1.1-1.9,1.4L277.1,116.8z M273.4,107.6
			c0-0.4-0.1-0.7-0.2-1c-0.1-0.3-0.3-0.5-0.6-0.7c-0.2-0.2-0.5-0.3-0.8-0.3c-0.3-0.1-0.7-0.1-1.2-0.1h-1.7v4.8h1.5
			c0.5,0,0.9,0,1.3-0.1c0.4-0.1,0.7-0.3,1-0.5c0.2-0.2,0.4-0.5,0.5-0.9C273.4,108.4,273.4,108,273.4,107.6z"/>
		<path class="st0" d="M282.4,117c-0.9,0-1.7-0.1-2.4-0.3c-0.7-0.2-1.3-0.4-1.8-0.7v-2.1h0.1c0.6,0.5,1.2,0.9,1.9,1.2
			c0.7,0.3,1.4,0.4,2.1,0.4c0.9,0,1.7-0.2,2.1-0.6c0.5-0.4,0.7-0.9,0.7-1.6c0-0.5-0.1-0.9-0.4-1.2c-0.3-0.3-0.7-0.6-1.2-0.7
			c-0.4-0.1-0.8-0.2-1.1-0.3c-0.3-0.1-0.7-0.2-1.2-0.3c-0.4-0.1-0.8-0.3-1.2-0.4c-0.4-0.2-0.7-0.4-0.9-0.7c-0.3-0.3-0.5-0.6-0.6-1
			c-0.1-0.4-0.2-0.8-0.2-1.3c0-1,0.4-1.9,1.2-2.6c0.8-0.7,1.8-1.1,3.1-1.1c0.7,0,1.4,0.1,2,0.2c0.6,0.1,1.2,0.3,1.8,0.6v2h-0.1
			c-0.4-0.4-0.9-0.7-1.6-1c-0.6-0.3-1.3-0.4-2-0.4c-0.8,0-1.4,0.2-1.9,0.6c-0.5,0.4-0.7,0.9-0.7,1.5c0,0.5,0.1,1,0.4,1.3
			c0.3,0.3,0.7,0.6,1.2,0.7c0.4,0.1,0.8,0.2,1.3,0.3c0.5,0.1,1,0.2,1.3,0.3c0.9,0.3,1.5,0.7,1.9,1.2c0.4,0.5,0.6,1.2,0.6,2
			c0,0.5-0.1,1-0.3,1.5c-0.2,0.5-0.5,0.9-0.9,1.2c-0.4,0.4-0.9,0.7-1.4,0.9C283.8,116.9,283.2,117,282.4,117z"/>
	</g>
	<path class="st0" d="M210.2,29.7c-2.5-3,2.3-7.7,0.5-9.1c-1.9-1.4-6.4,5.6-6.4,5.6s-5.6-2.3-11.7-3.9c-3.7-1-16.2-4.2-28.8-4.8
		c-2.1-0.6-3.7-2-4.1-2.3c-3.3-2.7,0.6-5.3,2.3-7.6c0.6-0.8,1.1-1.8,0.3-2.7c-1.9-2.3-7.8,1.5-9.6,2.5c-4.4,2.5-8.3,6.2-10.5,10.9
		c-1.1,2.4-1.7,2.8-1.9,2.9c-14.4,6.6-20.1,10.2-29.7,19.4c-10,9.6-7.3,13.9-7.3,13.9s-5.2,3.6-2.9,6.5c3.2,4,12.7-4.6,16.5-4.9
		c3.8-0.3,8.6-2.3,8.6-2.3c5.4,3.9,17.7,6.5,19.6,4.5c1.9-2-6.7-8.1-6.7-8.1s0.9,0.1,13.1-5.9c12.2-6,22.8-8.9,28.7-9.6
		s17.3-2.1,24.2,0.6s14.8,2.3,15.5-0.2C220.6,32.5,212.8,32.7,210.2,29.7z M208.9,23c0,1.2-1.4,4-0.7,6.5c0,0-3,0.5-3.5-1.4
		C204.3,26.2,208.9,21.8,208.9,23z M144,16.8c1.2-1.9,2.8-3.7,4.5-5.1c1.9-1.6,4-2.8,6.2-3.9c0.9-0.4,5.4-3,6.3-2
		c-0.5,1.7-2.8,3.1-3.7,4.8c-1.5,2.6-0.3,4.9,2,6.5c0.1,0.1,0.3,0.2,0.5,0.3c-6.5,0-12.8,0.7-17.7,2.9C143,19.7,143.6,17.4,144,16.8
		z M101.1,59.2c-1.5-0.8,1.3-4.1,3.5-4.8c2.2-0.7,5-1.2,5-1.2S102.6,59.9,101.1,59.2z M119.6,54.1c-2.9,0.4-6.5,1.9-9.7,3.7
		c-3.2,1.8-5.7,2.6-6.1,1.8c-0.5-0.8,2.9-2.2,5-4c2.1-1.8,2.5-3.9,4.6-4.3s9.8-1.4,10,0.5C123.5,53.2,122.5,53.7,119.6,54.1z
		 M141.4,55.9c-1.1,2.3-11.6-0.5-14.8-3s-1.6-3.8-6.4-3.5c-4.8,0.3-7,0.7-9.1,1.6c-2.1,0.9-5.4,2.3-6.8,1.6
		c-1.4-0.7,3.6-0.6,4.3-1.7c0.8-1.1,0.9-3.5,2.4-3c1.6,0.5,2,1.2,5.9,0.7c3.9-0.5,4.1-1.2,8.2-0.2c4.1,1,7,0.8,8.2-1.5
		C133.4,46.9,142.5,53.7,141.4,55.9z M179.5,33.5c-10.1,1.9-25.7,8.3-30.9,10.6s-10.6,5.3-12.1,3c-1.8-2.7,4.4-6.8,14-10.2
		c4-1.4,8.6-2.8,13.3-3.9c17.3-3.9,33-3,32.9-1.6C196.8,32.9,189.7,31.6,179.5,33.5z M217.3,35c-0.6,1.9-7.8,1.7-13.4-2.4
		c0,0,4.2,0.1,5.1-1.7C208.9,30.9,217.9,33.2,217.3,35z"/>
	<path class="st0" d="M126.6,28.1c-2.3-1.1-4.4-2-6.8-2.5c-2-0.4-4.3-0.7-6.6-0.9c-4.9-0.5-10.1-1.1-12.4-3.3l-0.9-0.9l0,1.3
		c0,1-0.1,6,1,7.4c1.1,1.4,2.2,4.3,1.9,4.7c-0.8,0.2-6.2-2.7-8.7-6.4c-1.1-1.8-1.6-3.4-2-4.9c-0.3-1-0.5-2-1-2.7
		c0.2-0.5,0.4-1.5-0.1-2.6c-0.6-1.4-2.1-2.6-4.4-3.4c-1.6-0.5-2.9-0.8-4.1-1.1c-2.9-0.6-4.9-1.1-6.5-3.8c0.3-0.6,1.5,0,1.9,0.3
		c0.5,0.4,1,0.6,1.3,0.7c0,0,1.5-1.5,2.4-0.7c0.9,0.8,0,2.3,0,2.3s8.1-0.1,11.9,3.9c0,0,11.9-0.6,22,1.4c6.8,1.3,13.9,4.9,18.8,7.7
		c1.2-0.6,1.1-0.2,2.3-0.7c7.1-3.2,6.2-5.6,6.2-5.6s1.4-2.6,2.5-4.1c-3.1-3.2-5.8-5.8-6.8-6.8c0.7-0.6,2.3-1.7,4.8-1.8
		c1.9-0.1,2.8-0.4,3-1.1c0.2-0.5,0-0.9-0.3-1.2c-3.6-5.8-19.1-2.2-20.7-1.8c-11.9-1.9-26.1-1.8-37,0.3c-9.7,1.9-12.5,5.5-13.2,6.7
		c-1.6,0-7.3,0.1-9,2.1c-0.5,0.5-0.6,1.2-0.5,1.9c0.6,2.9,4.5,3.5,10,4.5l1.6,0.3c2.1,0.4,4,0.6,5.6,0.8c2.9,0.4,5.1,0.7,6.5,1.4
		c1,0.6,1.3,1.7,1.8,3.4c0.4,1.5,0.9,3.3,2.1,5.3c2.6,4,8.7,7.7,10.2,6.8c0.2-0.1,0.5-0.4,0.5-0.9c0.3-1.5-1.2-4.4-2.1-5.5
		c-0.3-0.4-0.5-1.2-0.6-2.3c1.1,1.2,2.9,2.7,5.3,2.7c0.4,0,0.8,0,1.3-0.2l0.2,0l0.1-0.2c0,0,1.1-1.4-0.2-3.4
		c1.7,0.3,3.5,0.5,5.3,0.6c2.3,0.2,4.6,0.5,6.5,0.9c2.1,0.4,3.9,1.1,5.9,2.1C125.8,28.5,126.2,28.3,126.6,28.1z M144.9,3.9l0.1,0.1
		c0,0,0,0,0,0c-0.1,0.1-0.6,0.3-2,0.3c-3.4,0.1-5.4,1.9-5.9,2.4c-4.6-2.2-8.5-3.6-11.1-4.5C129.3,1.7,142.1-0.8,144.9,3.9z
		 M69.8,13.4c-1.4-0.3-2.8-0.6-2.6-2.4c1.6-1.2,5.8-1.4,7.8-1.3c0.7,1.2,1.5,2,2.4,2.6C73.5,13.4,71.1,13.7,69.8,13.4z M90.1,18.8
		c-0.1-0.1-0.3-0.2-0.4-0.3c-1.6-0.9-3.8-1.2-6.9-1.6c-1.6-0.2-3.4-0.4-5.5-0.8l-1.6-0.3c-1.3-0.2-1.8-0.2-2.8-0.6
		c-2-0.8,4.9-2.5,6-2.2c1,0.4,2.1,0.7,3.4,0.9c1.2,0.3,2.5,0.6,4,1.1c2,0.7,3.3,1.6,3.7,2.7C90,18,90.1,18.4,90.1,18.8z M107.1,27.7
		c-3.3,0.6-5.8-2.9-6.2-3.6c0-0.4,0-0.8,0-1.2c1.3,0.9,3.1,1.5,5.1,1.9C107.6,26.3,107.3,27.3,107.1,27.7z"/>
	<path class="st0" d="M173.4,41.4c-0.1-0.4-0.5-0.8-0.9-1c-1.5-0.7-4.6,0.4-5.7,0.9c-0.4-0.5-1.2-1.6-2.3-3.1
		c-0.2,0.1-0.5,0.2-0.7,0.2c-2.5,0.8-8.7,3.6-10.8,4.5c5.2,3.7,7.9,7.2,8.3,7.7c0.4,1.4,3.2,10.2,7,10.6c0.1,0,0.1,0,0.2,0
		c0.5,0,1-0.2,1.4-0.6c2.1-2.2,1-10.6,0.8-12.4C171.4,47.2,174.1,43.4,173.4,41.4z M161,46.5c-0.7,0.3-4.3-2-4.6-4.4
		C156,39.7,161.7,46.3,161,46.5z M167.9,58.1c-2.7,0-4.1-4.4-4-7.7c0.1-2.6,4.8,0,4.8,0S170.6,58.1,167.9,58.1z M166.8,48.2
		c-2.4-2.1-3.3-4.5-2.7-5.7c0.6-1.1,5,4.8,5.4,5.7c0,0,0,0.1,0,0.1c0,0.1,0,0.3,0.1,0.5C169.5,49.5,168.7,49.9,166.8,48.2z
		 M168.4,45.3c-1.8-1.3,2.3-4.8,3.2-3.3C172.3,43.3,170.1,46.6,168.4,45.3z"/>
</g>
</svg>
