<?xml version="1.0" encoding="utf-8"?>
<!-- Generator: Adobe Illustrator 21.0.2, SVG Export Plug-In . SVG Version: 6.00 Build 0)  -->
<svg version="1.1" id="Слой_1" xmlns="http://www.w3.org/2000/svg" xmlns:xlink="http://www.w3.org/1999/xlink" x="0px" y="0px"
	 viewBox="0 0 368.7 51" style="enable-background:new 0 0 368.7 51;" xml:space="preserve">
<g>
	<path d="M92.9,28c-1.4,5.5-2.9,11-4.3,16.6c-0.2,0-0.3,0-0.5,0c-1.4-5.6-2.9-11.1-4.3-16.7c-0.2,0-0.4,0-0.6,0
		c-0.1,0.6-0.2,1.2-0.2,1.7c0,6.2,0,12.4,0,18.6c0,2.1-0.2,2.2-2.2,2.2c-1.2,0-2.4,0-3.6,0c-2.6,0-2.6,0-2.6-2.5
		c0-8.8,0-17.6,0-26.4c0-6.3,0-12.7,0-19c0-1.9,0.1-2,2.1-2c1.3,0,2.6,0,3.9,0c1.1,0,1.7,0.5,1.9,1.5c1.6,7.1,3.1,14.2,4.7,21.3
		c0.2,1.1,0.6,2.2,0.9,3.2c0.2,0,0.3,0,0.5,0c0.2-0.5,0.4-1,0.6-1.6c1.6-7.4,3.2-14.7,4.8-22.1c0.5-2.2,0.8-2.4,3-2.4
		c1.2,0,2.4,0,3.6,0c0.9,0,1.4,0.4,1.5,1.3c0.1,0.5,0.1,1.1,0.1,1.7c0,14.6,0,29.3,0,43.9c0,0.4,0,0.7,0,1.1c-0.1,1.8-0.4,2-2.2,2
		c-1.4,0-2.8-0.1-4.2,0c-1.5,0.1-2-0.4-2-1.9c0.1-6.2,0-12.5,0-18.7c0-0.6-0.1-1.2-0.2-1.8C93.3,28,93.1,28,92.9,28z"/>
	<path d="M173.3,26.5c0.3-0.8,0.6-1.7,0.8-2.5c1.6-7.2,3.2-14.3,4.7-21.5c0.3-1.4,0.9-2.1,2.5-2c1.3,0.1,2.6,0.1,3.9,0
		c1.2-0.1,1.6,0.5,1.6,1.6c0,0.4,0,0.7,0,1.1c0,14.9,0,29.9,0,44.8c0,2.5,0,2.5-2.5,2.5c-1.1,0-2.2,0-3.3,0c-2.5,0-2.5,0-2.5-2.6
		c0-4.1,0-8.2,0-12.2c0-2.1,0-4.1,0-6.2c0-0.5-0.1-1-0.1-1.4c-0.1,0-0.3-0.1-0.4-0.1c-0.2,0.5-0.6,1-0.7,1.6
		c-1.1,4.3-2.2,8.6-3.3,12.8c-0.2,0.8-0.5,1.5-0.7,2.3c-0.1,0-0.3,0-0.4,0c-1.4-5.6-2.9-11.1-4.3-16.7c-0.2,0-0.4,0-0.6,0
		c-0.1,0.6-0.2,1.2-0.3,1.7c0,6.2,0,12.4,0,18.6c0,2.1-0.1,2.1-2.1,2.2c-1.6,0-3.1,0-4.7,0c-1.1,0-1.6-0.5-1.6-1.5
		c0-0.4,0-0.8,0-1.2c0-14.8,0-29.6,0-44.4c0-0.6-0.1-1.2,0.1-1.6c0.3-0.5,0.9-1.1,1.4-1.2c1.5-0.2,3,0,4.5-0.1c1.2,0,1.8,0.6,2,1.6
		c1.7,7.5,3.3,15,5,22.5c0.1,0.6,0.4,1.3,0.6,1.9C173,26.5,173.2,26.5,173.3,26.5z"/>
	<path d="M234.3,23.4c0-0.6,0.1-1.2,0.1-1.7c0-6.2,0-12.5,0-18.7c0-2.3,0-2.4,2.3-2.4c1.2,0,2.4,0.1,3.6,0c1.4-0.1,1.9,0.6,1.8,1.9
		c0,0.2,0,0.4,0,0.6c0,15,0,30.1,0,45.1c0,2.3,0,2.4-2.3,2.4c-3.8,0-3.8,0-4.9-3.7c-1.9-6.2-4-12.5-6-18.7c-0.1-0.4-0.4-0.9-0.6-1.3
		c-0.1,0-0.3,0-0.4,0c-0.1,0.6-0.2,1.2-0.2,1.8c0,6.5,0,13.1,0,19.6c0,2.1-0.2,2.2-2.2,2.2c-1.4,0-2.7,0-4.1,0
		c-1.1,0-1.6-0.5-1.6-1.5c0-0.5-0.1-0.9-0.1-1.4c0-14.8,0-29.6,0-44.4c0-0.5,0-0.9,0.1-1.4c0.1-1,0.5-1.5,1.5-1.4c0.1,0,0.2,0,0.3,0
		c4.6,0.1,4.2-0.9,5.7,4c1.8,5.6,3.6,11.3,5.5,16.9c0.2,0.7,0.6,1.4,0.9,2.1C233.9,23.5,234.1,23.4,234.3,23.4z"/>
	<path d="M281.9,33.2c-0.1,0.6-0.2,1.1-0.2,1.7c0,4.5,0,9,0,13.4c0,2-0.2,2.1-2.2,2.1c-1.3,0-2.6-0.1-3.9,0
		c-1.3,0.1-1.8-0.4-1.8-1.7c0.1-2.1,0-4.1,0-6.2c0-13.3,0-26.6,0-39.8c0-2.2,0.1-2.2,2.2-2.2c2.9,0,5.7,0,8.6,0
		c5.6,0,9.4,3.8,9.4,9.3c0,3.6,0,7.2,0,10.9c0,3.2-1.2,5.7-3.7,7.5c-0.9,0.7-1.2,1.3-0.8,2.4c1.9,6,3.8,12.1,5.7,18.1
		c0.5,1.6,0.4,1.7-1.3,1.7c-1.4,0-2.8-0.1-4.2,0c-1.4,0.1-2.1-0.5-2.5-1.8c-1.4-4.7-2.8-9.3-4.2-14c-0.2-0.5-0.4-1-0.6-1.5
		C282.3,33.2,282.1,33.2,281.9,33.2z M281.7,15.2c0,1.9,0,3.8,0,5.7c0,0.8-0.3,1.8,1.1,1.8c2.2,0.1,3.3-0.2,3.4-1.6
		c0.1-3.9,0.1-7.8,0-11.7c0-1.3-1.3-1.9-3.1-1.8c-1.5,0.1-1.4,1-1.4,2C281.7,11.4,281.7,13.3,281.7,15.2z"/>
	<path d="M193.4,25.3c0-5.6-0.1-11.3,0-16.9c0.1-4.6,3.6-8,8.2-8.3c2.7-0.2,5.4-0.2,7.9,1.4c2.9,1.9,4.1,4.6,4.2,7.9
		c0,10.7,0.1,21.4,0,32.1c0,5.8-3.9,9.3-9.7,9.5c-6,0.2-8.9-2.7-10-5.9c-0.5-1.2-0.5-2.7-0.6-4C193.3,35.9,193.3,30.6,193.4,25.3
		C193.4,25.3,193.4,25.3,193.4,25.3z M205.7,25.7C205.7,25.7,205.7,25.7,205.7,25.7c0-5.4,0-10.8,0-16.1c0-1.7-0.7-2.3-2.3-2.3
		c-1.6,0-2.3,0.8-2.3,2.7c0,10.4,0,20.7,0,31.1c0,1.9,0.7,2.7,2.4,2.7c1.6,0,2.1-0.6,2.2-2.7C205.7,35.9,205.7,30.8,205.7,25.7z"/>
	<path d="M42.8,25.6c0,5.2,0,10.5,0,15.7c0,5.9-3.8,9.6-9.7,9.7c-3.8,0.1-7.1-0.7-9.1-4.1c-0.8-1.3-1.3-3-1.4-4.5
		c-0.1-11.1,0.1-22.1-0.1-33.2c-0.1-4.2,3.2-8.6,7.8-9c3-0.3,6-0.4,8.6,1.5c2.6,1.8,3.9,4.4,3.9,7.5C42.9,14.6,42.8,20.1,42.8,25.6z
		 M34.8,25.7c0-5.3,0-10.7,0-16c0-2-1.2-2.9-3-2.3c-1.4,0.4-1.5,1.6-1.5,2.8c0,10.3,0,20.6,0,30.9c0,2,0.7,2.7,2.4,2.7
		c1.6,0,2.2-0.7,2.2-2.7C34.8,35.9,34.8,30.8,34.8,25.7z"/>
	<path d="M48.2,22.6c0-6.7,0-13.5,0-20.2c0-1.5,0.5-2,1.9-1.9c1.4,0.1,2.8,0.1,4.2,0c1.2-0.1,1.6,0.4,1.6,1.6c-0.1,4,0,7.9,0,11.9
		c0,9,0,17.9,0,26.9c0,2.2,0.7,3,2.5,2.9c1.4,0,2-0.8,2.2-2c0.1-0.5,0-1,0-1.5c0-12.4,0-24.9,0-37.3c0-2.5,0-2.5,2.5-2.5
		c1.2,0,2.3,0,3.5,0c1.4-0.1,1.9,0.5,1.9,1.9c0,6.3,0,12.6,0,18.9c0,6.8,0,13.6,0,20.4c0,5.4-4,9.4-9.3,9.3c-2.1,0-4.3-0.2-6.1-1
		c-3.2-1.4-4.8-4.1-4.8-7.7C48.2,35.7,48.2,29.1,48.2,22.6z"/>
	<path d="M340.9,50.5c-3.8-0.1-3.6,0.9-3.9-3.9c-0.1-1.2-0.2-2.3-0.3-3.5c0-1-0.5-1.5-1.6-1.6c-3.7-0.2-3.7-0.2-3.8,3.5
		c-0.1,1.4-0.2,2.8-0.4,4.2c-0.1,0.5-0.8,1.2-1.2,1.2c-1.8,0.1-3.6,0.1-5.4,0.1c-1,0-1.2-0.6-1.1-1.4c0.4-3.9,0.9-7.9,1.3-11.8
		c0.4-3.3,0.7-6.7,1.1-10c0.5-4.7,1.1-9.5,1.6-14.2c0.4-3.3,0.8-6.7,1.1-10c0.2-2.1,0.4-2.5,2.5-2.5c2.4,0,4.8,0,7.2,0
		c1.2,0,1.6,0.4,1.8,1.5c0.4,3.3,0.8,6.7,1.2,10c0.9,8.3,1.8,16.6,2.8,24.8c0.4,3.9,0.8,7.9,1.3,11.8c0.2,1.4-0.3,2-1.7,1.8
		C342.5,50.5,341.8,50.5,340.9,50.5z M334.4,14.3c-0.2,0-0.3,0-0.5,0c-0.2,0.4-0.5,0.8-0.5,1.2c-0.4,5.6-0.7,11.3-1.1,16.9
		c-0.1,1.6,0.7,1.8,2,1.8c1.5,0,1.8-0.6,1.7-1.9c-0.4-5-0.7-10-1.1-15C334.8,16.3,334.6,15.3,334.4,14.3z"/>
	<path d="M123.5,25.5c0-5.5,0-11,0-16.4c0-5.1,3.8-9,8.9-9c1.9,0,4,0,5.8,0.7c3.6,1.4,5.3,4.3,5.6,8.1c0.1,1.7,0.1,3.4,0,5.1
		c-0.1,0.6-0.8,1.5-1.3,1.6c-1.7,0.5-3.5,0.6-5.3,0.9c-1,0.2-1.2-0.4-1.2-1.3c0-1.9,0-3.7,0-5.6c0-1.8-0.6-2.5-2.3-2.5
		c-1.6,0-2.3,0.7-2.4,2.4c0,10.5,0,21,0,31.5c0,1.8,0.7,2.6,2.4,2.6c1.6,0,2.2-0.7,2.2-2.5c0-2.8,0-5.6,0-8.5c0-1.2,0.4-1.5,1.5-1.4
		c1.5,0.2,3.1,0.4,4.6,0.6c1.2,0.1,1.8,0.7,1.8,1.9c-0.1,2.7,0,5.4,0,8.1c-0.1,4.6-3.7,8.5-8.3,8.8c-2.6,0.2-5.1,0.3-7.5-1.1
		c-2.9-1.7-4.5-4.2-4.5-7.5C123.5,36.7,123.5,31.1,123.5,25.5z"/>
	<path d="M300.8,25.6c0-7.5,0-15.1,0-22.6c0-2.3,0.2-2.4,2.4-2.4c4.3,0,8.7,0,13,0c1.3,0,1.8,0.5,1.8,1.8c0,1.5,0,3,0,4.5
		c0,1.1-0.5,1.7-1.6,1.6c-2,0-4,0-6,0c-1,0-1.5,0.3-1.5,1.4c0,2.7,0,5.4,0,8.2c0,1.1,0.5,1.5,1.6,1.5c1.7-0.1,3.3,0,5,0
		c1,0,1.6,0.4,1.5,1.5c-0.1,1.6-0.1,3.1,0,4.7c0,1.1-0.4,1.6-1.5,1.6c-1.5,0-2.9,0-4.4,0c-1.8-0.1-2.2,0.2-2.2,2c0,3.9,0,7.8,0,11.8
		c0,1.2,0.4,1.7,1.7,1.7c1.9-0.1,3.8,0,5.7,0c1.2,0,1.8,0.4,1.7,1.7c0,1.6,0,3.2,0,4.8c0,1-0.4,1.4-1.5,1.4c-4.6,0-9.3,0-13.9,0
		c-1.5,0-1.8-0.8-1.8-2c0-7,0-14.1,0-21.1C300.8,26.8,300.8,26.2,300.8,25.6z"/>
	<path d="M254,29c0-6.2,0-12.5,0-18.7c0-1.4-0.4-2.1-1.9-1.9c-0.1,0-0.2,0-0.3,0c-4,0-3.9,0.5-3.9-4c0-4.6-0.1-3.9,4-3.9
		c4.7,0,9.5,0,14.2,0c1.4,0,2,0.5,2,1.9c-0.1,1.4-0.1,2.8,0,4.2c0.1,1.3-0.6,1.8-1.8,1.8c-1,0-1.9,0-2.9,0c-1.2-0.1-1.6,0.5-1.6,1.6
		c0,0.3,0,0.6,0,0.9c0,12.5,0,25,0,37.4c0,2.1,0,2.1-2.1,2.1c-1.4,0-2.7,0-4.1,0c-1,0-1.5-0.5-1.6-1.4c-0.1-0.5-0.1-1.1-0.1-1.7
		C254,41.3,254,35.2,254,29z"/>
	<path d="M0,25.5c0-7.5,0-15.1,0-22.6c0-2.2,0.2-2.3,2.3-2.3c1.3,0,2.5,0.1,3.8,0C7.5,0.4,8,1.1,8,2.4c0,0.5,0,0.9,0,1.4
		C8,16,8,28.2,8,40.4c0,2.2,0,2.2,2.2,2.2c2,0,4,0,6,0c1.2,0,1.7,0.5,1.7,1.6c0,1.6,0,3.1,0,4.7c0,1.1-0.5,1.7-1.8,1.7
		c-4.7-0.1-9.4,0-14,0c-1.8,0-2.1-0.3-2.1-2.1C0,40.8,0,33.1,0,25.5z"/>
	<path d="M350.8,25.4c0-7.5,0-15.1,0-22.6c0-2.1,0.1-2.2,2.2-2.2c1.4,0,2.7,0,4.1,0c1.1,0,1.6,0.5,1.6,1.5c0,0.4,0,0.8,0,1.2
		c0,12.3,0,24.7,0,37c0,2.4,0,2.4,2.4,2.4c2,0,3.9,0,5.9,0c1.2,0,1.7,0.5,1.7,1.7c-0.1,1.6,0,3.1,0,4.7c0,1-0.5,1.5-1.5,1.5
		c-5,0-10,0-14.9,0c-1.4,0-1.5-0.8-1.5-1.9C350.8,40.9,350.8,33.1,350.8,25.4C350.8,25.4,350.8,25.4,350.8,25.4z"/>
	<path d="M117.2,25.5c0,7.6,0,15.2,0,22.8c0,2-0.1,2.2-2.1,2.2c-1.5,0-2.9,0-4.4,0c-0.9,0-1.4-0.4-1.4-1.4c0-0.4,0-0.7,0-1.1
		c0-15,0-30.1,0-45.1c0-2.4,0-2.4,2.5-2.4c1,0,1.9,0,2.9,0c2.5,0,2.6,0,2.6,2.5C117.2,10.5,117.2,18,117.2,25.5z"/>
</g>
</svg>
