<?xml version="1.0" encoding="utf-8"?>
<!-- Generator: Adobe Illustrator 21.0.2, SVG Export Plug-In . SVG Version: 6.00 Build 0)  -->
<svg version="1.1" id="Слой_1" xmlns="http://www.w3.org/2000/svg" xmlns:xlink="http://www.w3.org/1999/xlink" x="0px" y="0px"
	 viewBox="0 0 235.6 68.5" style="enable-background:new 0 0 235.6 68.5;" xml:space="preserve">
<style type="text/css">
	.st0{fill:#3597D3;}
	.st1{fill:#FFFFFF;}
	.st2{fill:#353535;}
</style>
<g>
	<rect class="st0" width="68.5" height="68.5"/>
	<path class="st1" d="M39,37.4c-1.4,0.9-3,1.4-4.8,1.4c-4.8,0-8.7-3.9-8.7-8.7s3.9-8.7,8.7-8.7s8.7,3.9,8.7,8.7
		c0,1.8-0.5,3.4-1.4,4.8l6.2,6.2c2.5-3,3.9-6.8,3.9-11c0-9.6-7.8-17.4-17.4-17.4c-3.2,0-6.1,0.8-8.7,2.3v-2.3h-8.7v42.9h8.7V45.2
		c2.6,1.5,5.5,2.3,8.7,2.3c4.2,0,8-1.5,11-3.9L39,37.4z"/>
	<path class="st2" d="M115.1,55.5V12.8h9.1v34.7h21.1v8H115.1z"/>
	<path class="st2" d="M148.8,55.5V12.8h9.1v42.7H148.8z"/>
	<path class="st2" d="M161.7,55.5V12.8h16.2c13.4,0,22.6,8.5,22.6,21.4s-9.3,21.3-22.6,21.3H161.7z M191.2,34.2
		c0-7.5-4.6-13.4-13.4-13.4h-7.1v26.7h7.1C186.3,47.5,191.2,41.4,191.2,34.2z"/>
	<path class="st2" d="M203.4,49l4.5-6.7c2.8,3,7,5.6,12.4,5.6c4.6,0,6.8-2.2,6.8-4.6c0-7.3-22.5-2.3-22.5-17.8
		c0-6.9,5.6-12.5,14.9-12.5c6.2,0,11.4,2,15.3,5.7l-4.6,6.4c-3.2-3.1-7.4-4.5-11.4-4.5c-3.6,0-5.6,1.7-5.6,4.1
		c0,6.5,22.5,2.2,22.5,17.5c0,7.5-5.1,13.2-15.7,13.2C212.4,55.6,207,52.9,203.4,49z"/>
	<path class="st2" d="M95.6,12.8h-9.1h-3h-6.1v42.7h9.1V42.9h9.1c8.3,0,15.1-6.8,15.1-15.1C110.6,19.6,103.9,12.8,95.6,12.8z
		 M95.6,33.9h-9.1V21.8h9.1c3.3,0,6.1,2.7,6.1,6.1C101.6,31.2,98.9,33.9,95.6,33.9z"/>
</g>
</svg>
