<?xml version="1.0" encoding="utf-8"?>
<!-- Generator: Adobe Illustrator 21.0.2, SVG Export Plug-In . SVG Version: 6.00 Build 0)  -->
<svg version="1.1" id="Слой_1" xmlns="http://www.w3.org/2000/svg" xmlns:xlink="http://www.w3.org/1999/xlink" x="0px" y="0px"
	 viewBox="0 0 192.8 64.9" style="enable-background:new 0 0 192.8 64.9;" xml:space="preserve">
<style type="text/css">
	.st0{fill:#A5A3A3;}
	.st1{fill:#535553;}
	.st2{fill:url(#SVGID_1_);}
	.st3{fill:#F79A1C;}
	.st4{opacity:0.7;fill:url(#SVGID_2_);}
	.st5{opacity:0.7;fill:url(#SVGID_3_);}
</style>
<g>
	<g>
		<path class="st0" d="M25.4,62.3c0.9,0.5,2.2,1,3.5,1c2,0,3.2-1.1,3.2-2.6c0-1.4-0.8-2.2-2.9-3c-2.5-0.9-4-2.2-4-4.3
			c0-2.4,2-4.1,4.9-4.1c1.6,0,2.7,0.4,3.4,0.7l-0.5,1.6c-0.5-0.3-1.5-0.7-2.9-0.7c-2.1,0-2.9,1.2-2.9,2.3c0,1.4,0.9,2.1,3,2.9
			c2.6,1,3.9,2.2,3.9,4.5c0,2.3-1.7,4.4-5.3,4.4c-1.5,0-3.1-0.4-3.9-1L25.4,62.3z"/>
		<path class="st0" d="M46.6,59.1c0,4-2.8,5.8-5.4,5.8c-2.9,0-5.2-2.2-5.2-5.6c0-3.6,2.4-5.8,5.4-5.8C44.5,53.5,46.6,55.8,46.6,59.1
			z M38,59.2c0,2.4,1.4,4.2,3.3,4.2c1.9,0,3.3-1.8,3.3-4.2c0-1.8-0.9-4.2-3.3-4.2S38,57.2,38,59.2z"/>
		<path class="st0" d="M49.1,48.7h2v16h-2V48.7z"/>
		<path class="st0" d="M63.6,61.7c0,1.1,0,2.1,0.1,3h-1.8l-0.1-1.8h0c-0.5,0.9-1.7,2-3.6,2c-1.7,0-3.8-0.9-3.8-4.8v-6.4h2v6
			c0,2.1,0.6,3.5,2.4,3.5c1.3,0,2.3-0.9,2.6-1.8c0.1-0.3,0.2-0.7,0.2-1v-6.7h2V61.7z"/>
		<path class="st0" d="M69.2,50.6v3.1h2.8v1.5h-2.8v5.9c0,1.4,0.4,2.1,1.5,2.1c0.5,0,0.9-0.1,1.1-0.1l0.1,1.5
			c-0.4,0.2-1,0.3-1.8,0.3c-0.9,0-1.7-0.3-2.1-0.8c-0.6-0.6-0.8-1.6-0.8-2.8v-5.9h-1.7v-1.5h1.7v-2.6L69.2,50.6z"/>
		<path class="st0" d="M76.5,50.7c0,0.7-0.5,1.2-1.3,1.2c-0.7,0-1.2-0.5-1.2-1.2c0-0.7,0.5-1.2,1.2-1.2C76,49.5,76.5,50,76.5,50.7z
			 M74.3,64.7V53.8h2v10.9H74.3z"/>
		<path class="st0" d="M89.4,59.1c0,4-2.8,5.8-5.4,5.8c-2.9,0-5.2-2.2-5.2-5.6c0-3.6,2.4-5.8,5.4-5.8C87.3,53.5,89.4,55.8,89.4,59.1
			z M80.8,59.2c0,2.4,1.4,4.2,3.3,4.2c1.9,0,3.3-1.8,3.3-4.2c0-1.8-0.9-4.2-3.3-4.2S80.8,57.2,80.8,59.2z"/>
		<path class="st0" d="M91.9,56.7c0-1.1,0-2-0.1-2.9h1.8l0.1,1.8h0c0.5-1,1.8-2,3.6-2c1.5,0,3.8,0.9,3.8,4.6v6.5h-2v-6.3
			c0-1.8-0.7-3.2-2.5-3.2c-1.3,0-2.3,0.9-2.7,2c-0.1,0.2-0.1,0.6-0.1,0.9v6.5h-2V56.7z"/>
		<path class="st0" d="M104.1,62.6c0.6,0.4,1.6,0.8,2.6,0.8c1.4,0,2.1-0.7,2.1-1.6c0-0.9-0.6-1.5-2-2c-2-0.7-2.9-1.8-2.9-3.1
			c0-1.8,1.4-3.2,3.8-3.2c1.1,0,2.1,0.3,2.7,0.7l-0.5,1.4c-0.4-0.3-1.2-0.6-2.2-0.6c-1.2,0-1.8,0.7-1.8,1.5c0,0.9,0.7,1.3,2.1,1.8
			c1.9,0.7,2.9,1.7,2.9,3.3c0,1.9-1.5,3.3-4.1,3.3c-1.2,0-2.3-0.3-3.1-0.7L104.1,62.6z"/>
		<path class="st0" d="M129.7,64c-0.9,0.3-2.6,0.8-4.7,0.8c-2.3,0-4.2-0.6-5.7-2c-1.3-1.3-2.1-3.3-2.1-5.6c0-4.5,3.1-7.8,8.2-7.8
			c1.8,0,3.1,0.4,3.8,0.7l-0.5,1.6c-0.8-0.4-1.8-0.7-3.4-0.7c-3.7,0-6.1,2.3-6.1,6.1c0,3.8,2.3,6.1,5.9,6.1c1.3,0,2.2-0.2,2.6-0.4
			v-4.5h-3.1v-1.6h5V64z"/>
		<path class="st0" d="M132.6,56.7c0-1.1,0-2-0.1-2.9h1.7l0.1,1.8h0.1c0.6-1,1.6-2,3.4-2c1.5,0,2.6,0.9,3.1,2.2h0
			c0.3-0.6,0.8-1.1,1.2-1.4c0.7-0.5,1.4-0.8,2.4-0.8c1.4,0,3.6,0.9,3.6,4.7v6.4h-1.9v-6.2c0-2.1-0.8-3.4-2.4-3.4
			c-1.1,0-2,0.8-2.3,1.8c-0.1,0.3-0.2,0.6-0.2,1v6.7h-1.9v-6.5c0-1.7-0.8-3-2.3-3c-1.2,0-2.1,1-2.5,2c-0.1,0.3-0.2,0.6-0.2,1v6.6
			h-1.9V56.7z"/>
		<path class="st0" d="M151.3,64.7c0-0.7,0.1-1.8,0.1-2.8V48.7h2v6.8h0c0.7-1.2,2-2,3.7-2c2.7,0,4.6,2.3,4.6,5.6
			c0,3.9-2.5,5.8-4.9,5.8c-1.6,0-2.8-0.6-3.6-2h-0.1l-0.1,1.8H151.3z M153.4,60.3c0,0.2,0,0.5,0.1,0.7c0.4,1.4,1.5,2.3,3,2.3
			c2.1,0,3.3-1.7,3.3-4.2c0-2.2-1.1-4.1-3.2-4.1c-1.4,0-2.6,0.9-3,2.4c0,0.2-0.1,0.5-0.1,0.8V60.3z"/>
		<path class="st0" d="M166.2,49.5v6.3h7.3v-6.3h2v15.2h-2v-7.1h-7.3v7.1h-2V49.5H166.2z"/>
	</g>
	<g>
		<path class="st1" d="M35,40H12.8C5.7,40,0,34.3,0,27.3v-9.4c0-7,5.7-12.8,12.8-12.8H35v4H12.8C7.9,9.2,4,13.1,4,17.9v9.4
			c0,4.8,3.9,8.8,8.8,8.8H35V40z"/>
	</g>
	<g>
		<path class="st1" d="M141.4,42.3h-9c-6.8,0-12.3-5.7-12.3-12.8V8h4v21.5c0,4.8,3.7,8.8,8.3,8.8h9c4.6,0,8.3-3.9,8.3-8.8V8h4v21.5
			C153.7,36.6,148.2,42.3,141.4,42.3z"/>
	</g>
	<path class="st1" d="M103.5,5.2L103.5,5.2l-0.5,0h-9.1h-0.5v0c-6.8,0.3-12.3,5.9-12.3,12.7v9.4c0,7,5.7,12.8,12.8,12.8h17v-4h-17
		c-4.8,0-8.8-3.9-8.8-8.8v-4.1h26.6h2h2v-5.3C115.8,11.1,110.3,5.5,103.5,5.2z M85.1,19.2v-1.3c0-4.8,3.9-8.7,8.8-8.7h9.1
		c4.8,0,8.8,3.9,8.8,8.7v1.3H85.1z"/>
	<path class="st1" d="M172.4,9.2h20.3v-4h-20.3c-7.7,0-14,6.2-14,13.8v4.2h4v0h26.3v3.8c0,5.2-4.2,9.4-9.4,9.4H159v4h20.4
		c7.4,0,13.4-6,13.4-13.4v-7.8h-30.3V19C162.4,13.6,166.9,9.2,172.4,9.2z"/>
	<g>
		<radialGradient id="SVGID_1_" cx="58.0754" cy="21.1796" r="21.1796" gradientUnits="userSpaceOnUse">
			<stop  offset="0.6183" style="stop-color:#FFFFFF"/>
			<stop  offset="1" style="stop-color:#E1E1E1"/>
		</radialGradient>
		<circle class="st2" cx="58.1" cy="21.2" r="21.2"/>
		<g>
			<path class="st1" d="M63.1,24.9c-1.3-6.3-5.7-11.4-11.5-13.8C52.9,17.4,57.3,22.5,63.1,24.9z"/>
			<g>
				<path class="st3" d="M77.2,27.3c0.9-2.6,1.3-5.5,1-8.5C77.2,9.5,69,1,60.3,1c-3.5,0-7.6,2.2-8.9,4.7c-1.1,2-1.3,2.9,2.8,4.7
					c6.4,2.8,12.3,9.9,13.9,17H77.2z"/>
				<path class="st3" d="M68.7,29.2c0.8,4.3-1.1,9.8,0.7,8.4c3-2,5.4-4.8,6.9-8L68.7,29.2z"/>
			</g>
			<path class="st1" d="M57.2,41.1c8.1,0,6.9-13,6.6-13.9c-10.6-0.5-19-9.3-19-20c0-0.5,0-1,0.1-1.6c-4.8,3.9-7.7,10-7.3,16.7
				c0.6,9.9,8.6,18,18.5,18.7C56.5,41.1,56.9,41.1,57.2,41.1z"/>
		</g>
		<radialGradient id="SVGID_2_" cx="49.6317" cy="12.0302" r="8.0753" gradientUnits="userSpaceOnUse">
			<stop  offset="6.071253e-02" style="stop-color:#FFFFFF"/>
			<stop  offset="0.8723" style="stop-color:#FFFFFF;stop-opacity:0"/>
		</radialGradient>
		<ellipse class="st4" cx="49.6" cy="12" rx="8.7" ry="7.5"/>
		<radialGradient id="SVGID_3_" cx="67.2261" cy="30.6742" r="7.8835" gradientUnits="userSpaceOnUse">
			<stop  offset="6.071253e-02" style="stop-color:#FFFFFF"/>
			<stop  offset="0.8723" style="stop-color:#FFFFFF;stop-opacity:0"/>
		</radialGradient>
		<ellipse class="st5" cx="67.2" cy="30.7" rx="8.4" ry="7.3"/>
	</g>
</g>
</svg>
