<?xml version="1.0" encoding="utf-8"?>
<!-- Generator: Adobe Illustrator 21.0.2, SVG Export Plug-In . SVG Version: 6.00 Build 0)  -->
<svg version="1.1" id="Слой_1" xmlns="http://www.w3.org/2000/svg" xmlns:xlink="http://www.w3.org/1999/xlink" x="0px" y="0px"
	 viewBox="0 0 165.2 151.7" style="enable-background:new 0 0 165.2 151.7;" xml:space="preserve">
<style type="text/css">
	.st0{fill:#0044B6;}
	.st1{fill:#F9E92D;}
	.st2{fill:#F6E92D;}
</style>
<g>
	<path class="st0" d="M139.6,64.2V0H25.8v64.5L0,75c3.1,42.9,38.9,76.7,82.6,76.7c43.8,0,79.6-34,82.6-77.1L139.6,64.2z"/>
	<g>
		<g>
			<path class="st1" d="M81.9,121.3l-0.7-0.4c-0.5-0.2-12-5.9-23.6-17.2C42.1,88.6,33.9,70.5,33.9,51.4v-42h96.4v42
				c0,24.4-12.9,42-23.8,52.5c-11.7,11.3-23.3,16.8-23.7,17L81.9,121.3z M37.3,12.8v38.6c0,22.9,12.3,39.8,22.7,49.8
				c9.6,9.4,19.3,14.8,22,16.2c2.7-1.4,12.5-6.8,22.2-16.1c15.1-14.6,22.7-31.4,22.7-50V12.8H37.3z"/>
		</g>
		<g>
			<path class="st1" d="M54.5,18.2h-2.1v5.9h-1.6v-5.9h-2.1v-1.3h5.9V18.2z"/>
			<path class="st1" d="M60,22.8l0.1,1.2c-0.6,0.1-1.8,0.1-3.3,0.1c-0.5,0-0.9-0.1-1.1-0.4c-0.3-0.3-0.4-0.6-0.4-1.1v-4.3
				c0-0.4,0.2-0.8,0.4-1.1c0.3-0.3,0.7-0.4,1.1-0.4c1.6,0,2.7,0,3.3,0.1L60,18.2h-2.7c-0.2,0-0.3,0-0.4,0.1
				c-0.1,0.1-0.1,0.2-0.1,0.4v1.1h2.9v1.1h-2.9v1.4c0,0.2,0,0.3,0.1,0.4c0.1,0.1,0.2,0.1,0.4,0.1H60z"/>
			<path class="st1" d="M63.7,21.4l-1.4-0.5c-0.5-0.2-0.9-0.5-1.1-0.8c-0.2-0.3-0.3-0.8-0.3-1.3c0-0.8,0.2-1.3,0.6-1.6
				c0.4-0.3,1.1-0.4,2-0.4c0.9,0,1.7,0.1,2.4,0.3l-0.1,1.1c-0.6,0-1.3,0-2.2,0c-0.4,0-0.7,0-0.8,0.1c-0.1,0.1-0.2,0.3-0.2,0.5
				c0,0.2,0.1,0.4,0.2,0.5c0.1,0.1,0.3,0.2,0.6,0.3l1.4,0.5c0.6,0.2,0.9,0.5,1.2,0.8c0.2,0.3,0.3,0.8,0.3,1.3c0,0.8-0.2,1.3-0.6,1.6
				s-1.1,0.4-2.1,0.4c-0.8,0-1.6-0.1-2.5-0.3l0.1-1.1c1.5,0,2.3,0.1,2.4,0.1c0.4,0,0.7,0,0.8-0.1c0.1-0.1,0.2-0.3,0.2-0.6
				c0-0.2,0-0.4-0.1-0.5C64.1,21.5,64,21.4,63.7,21.4z"/>
			<path class="st1" d="M67.4,17.6c0.4-0.5,1.2-0.8,2.4-0.8c1.1,0,1.9,0.3,2.4,0.8c0.4,0.5,0.7,1.5,0.7,2.9c0,1.4-0.2,2.4-0.7,2.9
				c-0.4,0.5-1.2,0.8-2.4,0.8c-1.1,0-1.9-0.3-2.4-0.8c-0.4-0.5-0.7-1.5-0.7-2.9C66.7,19.1,66.9,18.1,67.4,17.6z M70.9,18.6
				c-0.2-0.3-0.6-0.5-1.1-0.5s-0.9,0.2-1.1,0.5c-0.2,0.3-0.3,1-0.3,1.9c0,0.9,0.1,1.6,0.3,1.9c0.2,0.3,0.6,0.5,1.1,0.5
				s0.9-0.2,1.1-0.5c0.2-0.3,0.3-1,0.3-1.9C71.2,19.5,71.1,18.9,70.9,18.6z"/>
			<path class="st1" d="M80.9,22.7l0.1,1.2c-0.6,0.2-1.4,0.3-2.3,0.3c-1.1,0-1.9-0.3-2.3-0.8c-0.4-0.6-0.7-1.5-0.7-2.9
				c0-1.4,0.2-2.3,0.7-2.9c0.4-0.6,1.2-0.8,2.3-0.8c0.8,0,1.5,0.1,2.1,0.2l-0.1,1.2c-0.6,0-1.2-0.1-2-0.1c-0.5,0-0.9,0.2-1.1,0.5
				c-0.2,0.3-0.3,0.9-0.3,1.8c0,0.9,0.1,1.5,0.3,1.8c0.2,0.3,0.5,0.5,1.1,0.5C79.7,22.8,80.4,22.8,80.9,22.7z"/>
			<path class="st1" d="M82.2,17.6c0.4-0.5,1.2-0.8,2.4-0.8c1.1,0,1.9,0.3,2.4,0.8c0.4,0.5,0.7,1.5,0.7,2.9c0,1.4-0.2,2.4-0.7,2.9
				c-0.4,0.5-1.2,0.8-2.4,0.8c-1.1,0-1.9-0.3-2.4-0.8c-0.4-0.5-0.7-1.5-0.7-2.9C81.5,19.1,81.8,18.1,82.2,17.6z M85.7,18.6
				c-0.2-0.3-0.6-0.5-1.1-0.5s-0.9,0.2-1.1,0.5c-0.2,0.3-0.3,1-0.3,1.9c0,0.9,0.1,1.6,0.3,1.9c0.2,0.3,0.6,0.5,1.1,0.5
				s0.9-0.2,1.1-0.5c0.2-0.3,0.3-1,0.3-1.9C86,19.5,85.9,18.9,85.7,18.6z"/>
			<path class="st1" d="M90.3,16.9v5.3c0,0.2,0,0.3,0.1,0.4c0.1,0.1,0.2,0.1,0.4,0.1h2.5l0.1,1.2c-0.7,0.1-1.7,0.1-3,0.1
				c-0.6,0-1-0.1-1.2-0.4s-0.4-0.6-0.4-1.1v-5.7H90.3z"/>
			<path class="st1" d="M95.6,16.9v5.3c0,0.2,0,0.3,0.1,0.4c0.1,0.1,0.2,0.1,0.4,0.1h2.5l0.1,1.2c-0.7,0.1-1.7,0.1-3,0.1
				c-0.6,0-1-0.1-1.2-0.4s-0.4-0.6-0.4-1.1v-5.7H95.6z"/>
			<path class="st1" d="M104.2,22.8l0.1,1.2c-0.6,0.1-1.8,0.1-3.3,0.1c-0.5,0-0.9-0.1-1.1-0.4c-0.3-0.3-0.4-0.6-0.4-1.1v-4.3
				c0-0.4,0.2-0.8,0.4-1.1c0.3-0.3,0.7-0.4,1.1-0.4c1.6,0,2.7,0,3.3,0.1l-0.1,1.2h-2.7c-0.2,0-0.3,0-0.4,0.1
				c-0.1,0.1-0.1,0.2-0.1,0.4v1.1h2.9v1.1H101v1.4c0,0.2,0,0.3,0.1,0.4c0.1,0.1,0.2,0.1,0.4,0.1H104.2z"/>
			<path class="st1" d="M110.6,19.9v4.1h-1.2l-0.1-0.7c-0.6,0.6-1.2,0.8-2.1,0.8c-0.8,0-1.4-0.3-1.7-0.9c-0.4-0.6-0.5-1.5-0.5-2.9
				c0-1.4,0.2-2.4,0.7-2.9c0.5-0.5,1.3-0.8,2.5-0.8c0.9,0,1.6,0.1,2.2,0.2l-0.1,1.2c-0.8,0-1.5-0.1-2-0.1c-0.3,0-0.6,0-0.8,0.1
				c-0.2,0.1-0.3,0.2-0.5,0.3c-0.1,0.2-0.2,0.4-0.3,0.7c0,0.3-0.1,0.7-0.1,1.2c0,0.9,0.1,1.5,0.2,1.8c0.2,0.3,0.5,0.5,0.9,0.5
				c0.4,0,0.8-0.1,1.3-0.4v-2.5H110.6z"/>
			<path class="st1" d="M116.5,22.8l0.1,1.2c-0.6,0.1-1.8,0.1-3.3,0.1c-0.5,0-0.9-0.1-1.1-0.4c-0.3-0.3-0.4-0.6-0.4-1.1v-4.3
				c0-0.4,0.2-0.8,0.4-1.1c0.3-0.3,0.7-0.4,1.1-0.4c1.6,0,2.7,0,3.3,0.1l-0.1,1.2h-2.7c-0.2,0-0.3,0-0.4,0.1
				c-0.1,0.1-0.1,0.2-0.1,0.4v1.1h2.9v1.1h-2.9v1.4c0,0.2,0,0.3,0.1,0.4c0.1,0.1,0.2,0.1,0.4,0.1H116.5z"/>
			<path class="st1" d="M72,32.4h-2.5L69,34.3h-1.6l2.1-6.7c0-0.1,0.1-0.2,0.2-0.3c0.1-0.1,0.2-0.1,0.4-0.1h1.5
				c0.3,0,0.5,0.1,0.5,0.4l2.1,6.7h-1.6L72,32.4z M71.7,31.2L71.1,29c-0.1-0.3-0.1-0.6-0.1-0.7h-0.3c0,0.1,0,0.2-0.1,0.3
				c0,0.2-0.1,0.3-0.1,0.3l-0.6,2.2H71.7z"/>
			<path class="st1" d="M76.3,27.2v5.3c0,0.2,0,0.3,0.1,0.4c0.1,0.1,0.2,0.1,0.4,0.1h2.5l0.1,1.2c-0.7,0.1-1.7,0.1-3,0.1
				c-0.6,0-1-0.1-1.2-0.4c-0.3-0.3-0.4-0.6-0.4-1.1v-5.7H76.3z"/>
			<path class="st1" d="M80.4,27.8c0.4-0.5,1.2-0.8,2.4-0.8c1.1,0,1.9,0.3,2.4,0.8c0.4,0.5,0.7,1.5,0.7,2.9c0,1.4-0.2,2.4-0.7,2.9
				c-0.4,0.5-1.2,0.8-2.4,0.8c-1.1,0-1.9-0.3-2.4-0.8c-0.4-0.5-0.7-1.5-0.7-2.9C79.7,29.3,80,28.3,80.4,27.8z M83.9,28.8
				c-0.2-0.3-0.6-0.5-1.1-0.5s-0.9,0.2-1.1,0.5c-0.2,0.3-0.3,1-0.3,1.9c0,0.9,0.1,1.6,0.3,1.9c0.2,0.3,0.6,0.5,1.1,0.5
				s0.9-0.2,1.1-0.5c0.2-0.3,0.3-1,0.3-1.9C84.2,29.8,84.1,29.1,83.9,28.8z"/>
			<path class="st1" d="M91.7,33.1l0.1,1.2c-0.6,0.1-1.8,0.1-3.3,0.1c-0.5,0-0.9-0.1-1.1-0.4c-0.3-0.3-0.4-0.6-0.4-1.1v-4.3
				c0-0.4,0.2-0.8,0.4-1.1c0.3-0.3,0.7-0.4,1.1-0.4c1.6,0,2.7,0,3.3,0.1l-0.1,1.2h-2.7c-0.2,0-0.3,0-0.4,0.1
				c-0.1,0.1-0.1,0.2-0.1,0.4V30h2.9v1.1h-2.9v1.4c0,0.2,0,0.3,0.1,0.4c0.1,0.1,0.2,0.1,0.4,0.1H91.7z"/>
			<path class="st1" d="M98,28.4h-2.1v5.9h-1.6v-5.9h-2.1v-1.3H98V28.4z"/>
		</g>
		<g>
			<g>
				<path class="st1" d="M27.5,108.7l-1.3-1.9l-1.7,0.6l-0.9-1.2l6.2-2.1c0.1,0,0.2-0.1,0.3,0c0.1,0,0.2,0.1,0.3,0.2l0.8,1.1
					c0.2,0.2,0.2,0.4,0,0.6l-4,5.2l-0.9-1.2L27.5,108.7z M28.3,107.8l1.3-1.6c0.2-0.3,0.4-0.4,0.4-0.5l-0.2-0.2
					c-0.1,0-0.2,0.1-0.3,0.1c-0.1,0.1-0.2,0.1-0.3,0.1l-2,0.7L28.3,107.8z"/>
			</g>
			<g>
				<path class="st1" d="M29.4,113.9l-0.9-1.1l5.1-4.3l0.9,1.1L29.4,113.9z"/>
			</g>
			<g>
				<path class="st1" d="M37.4,112.8l-3.8,3.6c-0.4,0.3-0.7,0.5-1.1,0.5c-0.4,0-0.7-0.2-1.1-0.5c-0.4-0.4-0.6-0.7-0.7-1l0.8-0.6
					l0.3,0.3c0.3,0.3,0.6,0.3,0.8,0.1l3.7-3.5L37.4,112.8z"/>
			</g>
			<g>
				<path class="st1" d="M38.2,120.2l-1.7-1.5l-1.5,1l-1.1-1l5.6-3.4c0.1-0.1,0.2-0.1,0.3-0.1c0.1,0,0.2,0.1,0.3,0.1l1,0.9
					c0.2,0.2,0.2,0.4,0.1,0.6l-2.8,6l-1.1-1L38.2,120.2z M38.7,119.2l0.9-1.9c0.2-0.3,0.3-0.5,0.3-0.6l-0.2-0.2
					c-0.1,0-0.1,0.1-0.3,0.2c-0.1,0.1-0.2,0.1-0.3,0.2l-1.8,1.1L38.7,119.2z"/>
			</g>
			<g>
				<path class="st1" d="M44,124.8l-1.9-1.3l-1.4,1.1l-1.2-0.9l5.3-4c0.1-0.1,0.2-0.1,0.3-0.1c0.1,0,0.2,0,0.3,0.1l1.1,0.8
					c0.2,0.2,0.3,0.4,0.2,0.6l-2.1,6.2l-1.2-0.9L44,124.8z M44.4,123.7l0.7-2c0.1-0.3,0.2-0.5,0.3-0.6l-0.2-0.2c0,0-0.1,0.1-0.2,0.2
					c-0.1,0.1-0.2,0.2-0.3,0.2l-1.7,1.3L44.4,123.7z"/>
			</g>
			<g>
				<path class="st1" d="M54.5,125.4l-3,5.4c-0.2,0.3-0.4,0.4-0.7,0.2l-0.8-0.5c-0.1-0.1-0.2-0.2-0.3-0.3c0-0.1-0.1-0.2,0-0.4l0.2-4
					c0-0.5,0.1-0.9,0.2-1.1l-0.1-0.1c-0.1,0.3-0.3,0.6-0.5,1l-2,3.5l-1.2-0.7l3-5.4c0.2-0.3,0.4-0.4,0.7-0.2l0.8,0.4
					c0.1,0.1,0.2,0.2,0.3,0.3c0,0.1,0.1,0.2,0,0.4l-0.2,3.8c0,0.4-0.1,0.8-0.1,1.2l0.1,0c0.2-0.5,0.4-0.8,0.5-1l1.9-3.3L54.5,125.4z
					"/>
			</g>
			<g>
				<path class="st1" d="M57.6,132.1l-2.1-0.9l-1.1,1.4l-1.4-0.6l4.2-5c0.1-0.1,0.2-0.2,0.3-0.2c0.1,0,0.2,0,0.3,0l1.3,0.5
					c0.3,0.1,0.4,0.3,0.3,0.6l-0.7,6.5l-1.4-0.6L57.6,132.1z M57.7,131l0.3-2.1c0.1-0.3,0.1-0.5,0.1-0.6l-0.2-0.1
					c0,0.1-0.1,0.1-0.2,0.3s-0.2,0.2-0.2,0.3l-1.3,1.7L57.7,131z"/>
			</g>
			<g>
				<path class="st1" d="M63.3,132.9l-0.5-0.2c0,0.3-0.1,0.5-0.1,0.6l-0.7,2.2l-1.4-0.4l1.9-6.4l1.4,0.4l-0.5,1.8
					c-0.1,0.3-0.2,0.5-0.3,0.7l0.5,0.2l2.4-2.1l1.5,0.5l-2.4,2c-0.2,0.2-0.4,0.3-0.6,0.4l0,0c0.2,0.2,0.3,0.5,0.4,0.7l0.9,3.2
					l-1.6-0.5L63.3,132.9z"/>
			</g>
			<g>
				<path class="st1" d="M69.1,137.4l-1.4-0.3l1.4-6.5l1.4,0.3L69.1,137.4z"/>
			</g>
			<g>
				<path class="st1" d="M78,132l-0.8,6.1c0,0.4-0.2,0.5-0.6,0.5l-0.9-0.1c-0.1,0-0.3-0.1-0.3-0.1c-0.1-0.1-0.1-0.2-0.2-0.4
					l-1.3-3.8c-0.2-0.5-0.3-0.9-0.3-1.1l-0.1,0c0,0.3,0,0.7-0.1,1.1l-0.5,3.9l-1.4-0.2l0.8-6.1c0-0.4,0.2-0.5,0.6-0.5l0.9,0.1
					c0.1,0,0.3,0.1,0.3,0.1c0.1,0.1,0.1,0.2,0.2,0.4l1.3,3.6c0.1,0.3,0.2,0.7,0.3,1.1l0.1,0c0-0.5,0.1-0.9,0.1-1.1l0.5-3.8L78,132z"
					/>
			</g>
			<g>
				<path class="st1" d="M84.9,135.9l-0.6,0c0.1,0.3,0.1,0.5,0.1,0.6l0.1,2.3l-1.5,0l-0.2-6.7l1.5,0l0.1,1.9c0,0.3,0,0.5,0,0.8
					l0.6,0l1.6-2.7L88,132l-1.6,2.7c-0.1,0.2-0.3,0.4-0.5,0.5l0,0c0.2,0.2,0.4,0.3,0.6,0.6l1.9,2.8l-1.6,0.1L84.9,135.9z"/>
			</g>
			<g>
				<path class="st1" d="M93.7,136.3l-2.3,0.3l-0.2,1.8l-1.5,0.2l1-6.5c0-0.1,0.1-0.2,0.1-0.3c0.1-0.1,0.2-0.1,0.3-0.2l1.4-0.2
					c0.3,0,0.5,0.1,0.6,0.3l2.8,6l-1.5,0.2L93.7,136.3z M93.2,135.2l-0.8-1.9c-0.1-0.3-0.2-0.5-0.2-0.6l-0.3,0c0,0.1,0,0.2,0,0.3
					c0,0.1,0,0.3,0,0.3l-0.3,2.1L93.2,135.2z"/>
			</g>
			<g>
				<path class="st1" d="M103.4,133.9l-2.2,0.7l0,1.8l-1.4,0.4l0-6.6c0-0.1,0-0.2,0.1-0.3c0.1-0.1,0.2-0.2,0.3-0.2l1.3-0.4
					c0.3-0.1,0.5,0,0.6,0.2l3.6,5.5l-1.4,0.4L103.4,133.9z M102.8,132.9l-1.1-1.8c-0.2-0.3-0.3-0.5-0.3-0.6l-0.3,0.1
					c0,0.1,0,0.2,0,0.3c0,0.1,0,0.3,0,0.3l0,2.1L102.8,132.9z"/>
			</g>
			<g>
				<path class="st1" d="M112.5,132.3l-1.4,0.6l-1.3-1.7c-0.1-0.2-0.3-0.3-0.4-0.3s-0.3,0-0.5,0.1l-1,0.4l1,2.4l-1.3,0.6l-2.6-6.2
					c0.5-0.3,1.3-0.6,2.3-1.1c0.8-0.3,1.5-0.5,1.9-0.3c0.5,0.1,0.8,0.5,1.1,1.2c0.2,0.5,0.2,0.8,0.2,1.2c-0.1,0.3-0.3,0.6-0.7,0.8
					l0,0c0.5-0.1,0.9,0.1,1.3,0.6L112.5,132.3z M107.6,130.3l1-0.4c0.4-0.2,0.6-0.3,0.7-0.5c0.1-0.2,0-0.4-0.1-0.8
					c-0.1-0.3-0.3-0.5-0.5-0.6c-0.2-0.1-0.4,0-0.8,0.1l-1,0.4L107.6,130.3z"/>
			</g>
			<g>
				<path class="st1" d="M115.7,130.6l-1.3,0.7l-3.1-5.9l1.3-0.7L115.7,130.6z"/>
			</g>
			<g>
				<path class="st1" d="M118.9,120.9l1.2-0.8c0.3-0.2,0.6-0.1,0.8,0.2l3.6,5l-1.2,0.8l-3.2-4.5l-0.1,0.1l1.4,4
					c0.1,0.3,0,0.5-0.2,0.7l-0.8,0.5c-0.3,0.2-0.5,0.2-0.8-0.1l-3.1-2.9l-0.1,0.1l2.9,4.7l-1.2,0.8l-3.2-5.3
					c-0.2-0.3-0.1-0.6,0.2-0.8l1.2-0.8c0.3-0.2,0.5-0.1,0.7,0.1l2.5,2.3c0.2,0.2,0.4,0.4,0.7,0.7l0.1-0.1c0,0-0.1-0.2-0.2-0.4
					c-0.1-0.2-0.2-0.4-0.2-0.5l-1.2-3.2C118.5,121.3,118.6,121.1,118.9,120.9z"/>
			</g>
			<g>
				<path class="st1" d="M128,120l-1.8,1.5l0.8,1.7l-1.2,1l-2.6-6.1c-0.1-0.1-0.1-0.2,0-0.3c0-0.1,0.1-0.2,0.2-0.3l1.1-0.9
					c0.2-0.2,0.4-0.2,0.6,0l5.5,3.6l-1.1,1L128,120z M127.1,119.4l-1.7-1.2c-0.3-0.2-0.4-0.3-0.5-0.4l-0.2,0.2
					c0,0.1,0.1,0.2,0.1,0.3c0.1,0.1,0.1,0.2,0.1,0.3l0.9,1.9L127.1,119.4z"/>
			</g>
			<g>
				<path class="st1" d="M135.7,114.9l-1.1,1.1l-1.8-1.1c-0.2-0.1-0.4-0.1-0.5-0.1c-0.1,0-0.3,0.1-0.4,0.2l-0.7,0.7l1.9,1.8l-1,1
					l-4.8-4.6c0.4-0.5,0.9-1.1,1.7-1.9c0.6-0.6,1.2-1,1.6-1.1c0.5-0.1,1,0.1,1.5,0.7c0.4,0.3,0.6,0.7,0.6,1c0.1,0.3,0,0.7-0.3,1.1
					l0,0c0.4-0.3,0.9-0.3,1.4,0L135.7,114.9z M130.4,115.1l0.7-0.8c0.3-0.3,0.4-0.5,0.4-0.7c0-0.2-0.1-0.4-0.4-0.7
					c-0.3-0.3-0.5-0.4-0.7-0.4c-0.2,0-0.4,0.2-0.7,0.4l-0.7,0.8L130.4,115.1z"/>
			</g>
			<g>
				<path class="st1" d="M138,112.1l-0.9,1.1l-5.2-4.2l0.9-1.1L138,112.1z"/>
			</g>
			<g>
				<path class="st1" d="M138,102.9l-1.1,1.6l4.5,3.1l-0.9,1.2l-4.5-3.1l-1.1,1.6l-1-0.7l3.1-4.5L138,102.9z"/>
			</g>
		</g>
		<path class="st1" d="M153.4,76.2l-4.3,4.2c-2.5,2.4-7.7,3.8-9.8,4.3L134,69.8l-0.8,4.2c-3.5,18.8-16.8,28.7-16.9,28.8l-1,0.7
			l6.3,7.5c-10.2,9.9-24.1,15.8-38.8,15.8c-14.9,0-28.9-6-39.1-16.1l6.1-7.1l-1-0.7c-0.1-0.1-13.4-9.9-16.9-28.8l-0.8-4.2l-5.3,14.9
			c-2.2-0.5-7.4-1.9-9.8-4.3l-4.3-4.2l2.5,5.5c0.2,0.4,4.4,9.6,7.9,14.5l-6.4,2l0.5,1.2c11.4,26.9,37.6,44.2,66.7,44.2
			c29.1,0,55.3-17.3,66.7-44.2l0.5-1.2l-6.9-2.2c3.5-4.9,7.6-13.9,7.8-14.3L153.4,76.2z M123.3,109.3l-4.5-5.3
			c5.6-2.9,10.6-5.6,13.4-7.2C129.8,101.5,126.8,105.6,123.3,109.3z M46.4,104.1l-4.2,4.9c-3.2-3.5-6-7.4-8.3-11.6
			C36.7,99,41.3,101.5,46.4,104.1z M18.1,84.4c3.7,1.8,8.1,2.7,8.4,2.7l1,0.2l3.2-9c2.5,9.5,7.2,16.4,11,20.7
			c-4.9-2.6-8.5-4.7-9.6-5.3l-0.3-0.6l-7.4,2.3C22.3,92.7,19.7,87.8,18.1,84.4z M82.9,141.2c-27.8,0-52.9-16.3-64.1-41.7l11.8-3.7
			c9.6,20.2,30,33.1,52.4,33.1c22.3,0,42.7-13,52.3-33.1l11.8,3.7C135.7,125,110.7,141.2,82.9,141.2z M140.9,95.3l-6.9-2.2l-0.3,0.7
			l-0.2-0.4c-0.1,0-4.2,2.4-9.9,5.5c3.8-4.4,8.5-11.3,11-20.7l3.2,9l1-0.2c0.2,0,4.6-0.9,8.4-2.7C145.5,87.8,142.9,92.6,140.9,95.3z
			"/>
		<g>
			<path class="st2" d="M88.8,53.1c-3.7,3-3.9,8.7-4.9,8.4c-1.1-0.3,0.1-5.4,3-9.1s9.8-6.2,19-7c9.2-0.8,7.5-7.3,7.5-7.3
				c-2.2,2.5-7.4,4.2-14.8,4.7c-7.4,0.5-11,2.1-15.9,7.9s-4.5,10.6-4.5,10.6c-4.5,0.6-10.1,2.9-9.9,8.9s5.8,9.4,5.8,9.4
				c-2.3,0.1-8.7-5.7-8.5-11.1c0.1-3.8,7.7-7.8,11.5-11.2c3.7-3.4,5.8-10.2,1-12.5c-4.8-2.3-11.9,4.7-11.9,4.7s-9.6,0-13.9,0
				s-7-0.1-7.1,1.4c0,1.9,3.3,1.5,4.4,1.4c5.8-0.3,23.2,0.2,23.2,0.2c0.9,1.3,0.3,4.7-6.2,7.4c-6.5,2.6-12,6.8-9,15.2
				c3,8.3,12.7,8.8,16.5,9.9c3.8,1.1,6.9,6.1,9,9.9c2.1,3.7,2.3,5.6,2.6,8.9c0.3,3.3,1.4,6.2,3.9,6.1c2.5-0.1,1.8-4.9,0.2-7.6
				c-1.6-2.7-2.3-4.9-2-6.7c0.2-1.8,1.4-0.7,2.3,0.3c0.9,0.9,1.8,1.3,2.9,0.4c1.1-0.9-1.9-3.3-2-4.1c-0.1-0.8,0.1-0.9,1.6,0.4
				c1.5,1.3,2.2,1.6,2.8,1.2c0.6-0.3,0.7-1.7-0.8-2.9c-1.5-1.2-4-2.7-3.7-3c0.3-0.3,1.7,0,3.1,1.3c1.4,1.3,3.7,4.5,5,2.8
				c1.2-1.7-2-3.8-4-5c-2-1.1-4.7-1-4.8-1.6c-0.1-0.6,1.1-1.2,4-0.5c2.9,0.7,4,1.8,5.2,3.3c1.2,1.5,2.9,4.2,4.6,0.9
				s-5.9-6.3-9.2-6.9c-3.3-0.6-7.8-0.7-7.8-0.7c-0.1-1.5-0.7-2.1-2.1-3.3c-1.4-1.1-1.1-2.1-0.8-2.4c0.3-0.3,1-0.1,2.3,1.5
				c1.3,1.6,3.4,3.3,4.8,2.1c1.5-1.2,0.7-2.2-2-3.1c-2.7-0.9-2.9-2.1-2.4-2.7c0.6-0.5,1.4,0,3,1.1c1.6,1.1,3.6,2.5,5.2,1.1
				c1.6-1.5-0.5-2.9-2.3-3.6c-1.8-0.8-5.5-2.3-5.1-3.1s2.1,0.2,3.9,1.3c1.8,1,4.4,2.1,6.4,1.8c2-0.3,0.7-2.2-0.9-2.8
				c-1.6-0.6-6.7-3.4-6.2-4c0.5-0.6,3,1.5,6.2,3.3c3.1,1.8,5.2,0,3.1-2c-2.1-2.1-5.3-1.9-4.6-2.8c0.6-0.9,6.4,2.7,7.7,1.6
				c1.3-1.1,0.1-2.3-3.1-2.7c-3.2-0.4-5-0.7-4.9-1.2c0.1-0.6,1.8-0.3,5.4,0s6.2,0.7,6.7-0.9c0.6-1.6-3.7-1.8-6.4-1.8
				c-2.7,0-5.9,0.4-5.8-0.9c0-1.3,7.2-0.7,10.8-0.8c3.6,0,3.3-1.5,1.5-1.7c-1.8-0.1-7.9,0-7.9-0.7c0-0.7,2.3-0.6,4.8-0.6
				c2.5,0,4.6,0.6,4.9-1.1c0.2-1.8-7-1.6-8.3-1.6s-1.7-1.1,5-1.1c6.7,0,6.1-2.7,6.1-2.7C101.2,47.8,94.6,48.5,88.8,53.1z M76.3,46.8
				c2,0,2.3,2.9,0,2.9C74,49.6,74.3,46.8,76.3,46.8z M77.5,81.7c-2.6-0.3,0-4,0-4S80.1,82,77.5,81.7z M85.1,81.4l-3.3-0.2
				c0,0-1.7-2.2-1.7-3.8C80.1,76.5,85.1,80,85.1,81.4z"/>
		</g>
		<g>
			<path class="st2" d="M69.9,86.4c0,0,3.1-0.7,5.4,1.8s4.1,4.5,4.1,4.5v12c0,0,2.6,2.3,1.4,4.6c-1.2,2.3-5.6,0.9-5.1-3.4
				c0.5-4.3,0.9-10.1,0.9-10.1S69.4,90.9,69.9,86.4z"/>
		</g>
		<g>
			<path class="st2" d="M56.2,48.2c-3.7-0.1-2.9-5.1,1.1-7.3c4-2.2,10.7-3.3,14.4-0.5c3.7,2.8,0.9,4.2-2.8,3.3s-5.6-1-7.7,1.4
				S59,48.3,56.2,48.2z"/>
		</g>
		<g>
			<path class="st2" d="M44.1,60.7c-2.4-1.3,2.8-7.6,6.4-7.7c3.7,0,0,4-1.8,5.8S45.5,61.5,44.1,60.7z"/>
		</g>
		<g>
			<path class="st2" d="M49.5,62.2c-2-1.1,3.5-7.1,4.4-8.2c0.9-1.1,3.4-0.9,2.1,1.1S51.6,63.3,49.5,62.2z"/>
		</g>
		<g>
			<path class="st2" d="M55,61.6c-1.5-0.6,1.5-4.7,2.4-6.8s3.8-1.6,3.5-0.5S57.4,62.6,55,61.6z"/>
		</g>
		<g>
			<path class="st2" d="M59.6,61c-1.2-0.6,1.6-6.3,3-7.2c1.4-0.9,2.4-0.4,1.8,2C63.8,58.2,61.4,61.9,59.6,61z"/>
		</g>
		<g>
			<path class="st2" d="M65.4,58.5c-1.4-0.2,0.9-5.2,2.8-5.2C70.1,53.4,67.8,58.8,65.4,58.5z"/>
		</g>
	</g>
</g>
</svg>
